/* XPM */
static char *_562243795821[] = {
/* columns rows colors chars-per-pixel */
"16 16 189 2 ",
"   c #3E0E00",
".  c #321401",
"X  c #351802",
"o  c #3B1D06",
"O  c #3E1E05",
"+  c #261D1F",
"@  c #281919",
"#  c #371113",
"$  c #382411",
"%  c #352319",
"&  c #282322",
"*  c #272921",
"=  c #2C2529",
"-  c #332122",
";  c #3F2525",
":  c #3D2F31",
">  c #4A1203",
",  c #411D00",
"<  c #441D00",
"1  c #5D1C06",
"2  c #521F1D",
"3  c #492006",
"4  c #442E06",
"5  c #482508",
"6  c #5A2102",
"7  c #453200",
"8  c #4A3505",
"9  c #513202",
"0  c #503503",
"q  c #513D03",
"w  c #593E00",
"e  c #492413",
"r  c #402E13",
"t  c #5E2E13",
"y  c #55231B",
"u  c #483210",
"i  c #4B3714",
"p  c #4E3A15",
"a  c #69290B",
"s  c #70210E",
"d  c #702D1D",
"f  c #412D2D",
"g  c #502B2B",
"h  c #582C32",
"j  c #433131",
"k  c #4B3838",
"l  c #483B3B",
"z  c #5E3232",
"x  c #553E3E",
"c  c #603636",
"v  c #6F3E35",
"b  c #623A3A",
"n  c #6B3F3F",
"m  c #564000",
"M  c #564306",
"N  c #584005",
"B  c #5C4505",
"V  c #5B4800",
"C  c #724224",
"Z  c #764126",
"A  c #60522A",
"S  c #66582F",
"D  c #6F483C",
"F  c #7E4537",
"G  c #6E5736",
"H  c #736537",
"J  c #7F6C3D",
"K  c #524244",
"L  c #544545",
"P  c #584748",
"I  c #5E474B",
"U  c #584849",
"Y  c #5B4A4A",
"T  c #5B4A4B",
"R  c #5C494B",
"E  c #594A4C",
"W  c #5C4C4C",
"Q  c #574E53",
"!  c #5D4C50",
"~  c #555555",
"^  c #555757",
"/  c #5F5050",
"(  c #5C5353",
")  c #5E5456",
"_  c #57595F",
"`  c #565C5C",
"'  c gray36",
"]  c #634141",
"[  c #634646",
"{  c #634747",
"}  c #644747",
"|  c #6C4040",
" . c #694545",
".. c #674848",
"X. c #654A4A",
"o. c #634B4D",
"O. c #634F4F",
"+. c #644C4C",
"@. c #684E4E",
"#. c #6A4E4E",
"$. c #6D4D4D",
"%. c #6F4D4D",
"&. c #705545",
"*. c #654F51",
"=. c #625151",
"-. c #615053",
";. c #635052",
":. c #645251",
">. c #615355",
",. c #665054",
"<. c #695251",
"1. c #6A5252",
"2. c #6F5252",
"3. c #695657",
"4. c #675B5B",
"5. c #605E59",
"6. c #6B5B5B",
"7. c #6B5D5F",
"8. c #705252",
"9. c #725354",
"0. c #745656",
"q. c #755656",
"w. c #7D5151",
"e. c #755858",
"r. c #765858",
"t. c #775959",
"y. c #725D5D",
"u. c #745C5E",
"i. c #775E5E",
"p. c #785858",
"a. c #795B5B",
"s. c #7C5B5C",
"d. c #7D5E5E",
"f. c #786C4C",
"g. c #7B605F",
"h. c #726B5B",
"j. c #78695B",
"k. c #755F63",
"l. c #5C6161",
"z. c #636466",
"x. c #646464",
"c. c #646666",
"v. c #64686A",
"b. c #6D6868",
"n. c #6A6D6F",
"m. c #6A6E6E",
"M. c #706060",
"N. c #716161",
"B. c #736366",
"V. c #776166",
"C. c #7A6363",
"Z. c #7E6262",
"A. c #786466",
"S. c #796666",
"D. c #7D6A6C",
"F. c #6D7271",
"G. c #6C737A",
"H. c #757B7E",
"J. c #844C32",
"K. c #81463D",
"L. c #944F3D",
"P. c #836A2D",
"I. c #876B2D",
"U. c #826C2C",
"Y. c #8E7336",
"T. c #87743B",
"R. c #85723E",
"E. c #8F753C",
"W. c #90783D",
"Q. c #865854",
"!. c #815F5F",
"~. c #8D6142",
"^. c #8C7B42",
"/. c #846556",
"(. c #887F52",
"). c #846160",
"_. c #866262",
"`. c #876767",
"'. c #856769",
"]. c #8A7372",
"[. c #8D7171",
"{. c #8B7676",
"}. c #798182",
"|. c #7D8083",
" X c #7F8384",
".X c #8C8F8F",
"XX c #9FA2A1",
"oX c #A1A4A4",
"OX c None",
/* pixels */
"OXOXOXOXOXOX$.e.0.@.OXOXOXOXOXOX",
"OXOXOXOXa.W =.1.*.=.>.e.OXOXOXOX",
"OXOXOX1.j z !.u./.~.Q.! P $.OXOX",
"OXOXC.x w.b.F.G.^.(.E.J.+.3.OXOX",
"OXd.L n l.c.z.h.Y.R.T.W.K.k 8.OX",
"OX6.b ( ~ ~ _ U.H I.P.G C | =.OX",
"@.M. .m.' c.5.J f.A S &.j.F K [ ",
"a.Y y.` .XoXXX|.m.v.H. X}.; f 2.",
"a.@ ] {.{.,.o.V.k.D.'.*.E # *.2.",
"+.M.z & = p $ u p $ > e % d E } ",
"OXS.g + * w 7 m V < X ,   L.7.OX",
"OX`.6.h 0 8 B N 4 < , . s l s.OX",
"OXOX[.: a 9 q M 5 o 6 2 :.k.OXOX",
"OXOXOXg.Q D Z t 1 y v ) Z.OXOXOX",
"OXOXOXOX).A.B.R - P :.).OXOXOXOX",
"OXOXOXOXOXOX} 9.0...OXOXOXOXOXOX"
};
