/* XPM */
static char *ae238f0b9974439cfb7715240ad4c101PgBBFuOu9qS9TzEP[] = {
/* columns rows colors chars-per-pixel */
"16 16 98 2 ",
"   c None",
".  c black",
"X  c #1C051A",
"o  c #25071D",
"O  c #231715",
"+  c #200027",
"@  c #312C21",
"#  c #3C4B16",
"$  c #5B7E18",
"%  c #4A4538",
"&  c #576822",
"*  c #587320",
"=  c #587827",
"-  c #61772E",
";  c #647A3F",
":  c #3D2741",
">  c #463743",
",  c #472552",
"<  c #583D55",
"1  c #5B3D68",
"2  c #5C5749",
"3  c #615852",
"4  c #615D57",
"5  c #62605C",
"6  c #65645D",
"7  c #5E5062",
"8  c #665F68",
"9  c #6A6866",
"0  c #716179",
"q  c #797775",
"w  c #7B7A77",
"e  c #7C7875",
"r  c #7B7578",
"t  c #78727C",
"y  c #7A727E",
"u  c #7E787C",
"i  c #807F7F",
"p  c #837F7F",
"a  c #628819",
"s  c #66862A",
"d  c #7EBA2E",
"f  c #78A532",
"g  c #7EB530",
"h  c #718749",
"j  c #798A4E",
"k  c #8BD32E",
"l  c #8BD32F",
"z  c #8DCF35",
"x  c #8BC33F",
"c  c #8BC43F",
"v  c #8CC73D",
"b  c #8CC63F",
"n  c #90D735",
"m  c #90D831",
"M  c #92DC36",
"N  c #92D33E",
"B  c #91D43C",
"V  c #94D73C",
"C  c #94D83E",
"Z  c #96DC3C",
"A  c #97E13A",
"S  c #98E33C",
"D  c #809E56",
"F  c #80955B",
"G  c #89BC45",
"H  c #869B60",
"J  c #8CC540",
"K  c #90CB41",
"L  c #91CE41",
"P  c #94CF43",
"I  c #96D941",
"U  c #97DA40",
"Y  c #98DD42",
"T  c #93C750",
"R  c #9BE441",
"E  c #9CE742",
"W  c #9EE745",
"Q  c #9FE745",
"!  c #9FE447",
"~  c #A0E945",
"^  c #A2EB48",
"/  c #A1EC49",
"(  c #A3EC49",
")  c #A2E94D",
"_  c #A5EC4E",
"`  c #6F5284",
"'  c #827F82",
"]  c #878281",
"[  c #8F8C83",
"{  c #888488",
"}  c #8E8B8A",
"|  c #928F8D",
" . c #A9A2AC",
".. c #B4B0AE",
"X. c #B8B4B3",
"o. c #C8BCCC",
"O. c #EBEBE8",
"+. c #ECEDEC",
/* pixels */
"                                ",
"              b b               ",
"              b b               ",
"          b   b b   b b         ",
"          b c c c   b b         ",
"        c c Y / R z x b         ",
"      x L S f & - T ~ b         ",
"      K n ; : o < 0 = Q         ",
"      m j ` { 6 4 u + s /       ",
"    I L @ t ' w 3 [ X % U       ",
"    Z G 2 O 9 r ..] 8 p g V     ",
"    B g t t 4 } X.w 7 2 B N     ",
"      A h 1 | +.O.' , * E       ",
"        ~ # . o. .. j Q         ",
"          ^ $ F H a M           ",
"            _ l l )             "
};
