/* XPM */
static char *_57884214b12430eaf6eb71cde37d6d5tynzmn32iCsCpwfk[] = {
/* columns rows colors chars-per-pixel */
"64 64 202 2 ",
"   c None",
".  c #010000",
"X  c #0B0100",
"o  c #090804",
"O  c #130400",
"+  c #150A02",
"@  c #1B0D01",
"#  c #16000D",
"$  c #1B000D",
"%  c #100C0A",
"&  c #1E1105",
"*  c #1C110A",
"=  c #151307",
"-  c #1C0011",
";  c #1F0D1C",
":  c #1E1614",
">  c #1E1916",
",  c #22080F",
"<  c #22150A",
"1  c #26190B",
"2  c #29190D",
"3  c #231605",
"4  c #240C15",
"5  c #240815",
"6  c #251114",
"7  c #251A13",
"8  c #2A1C12",
"9  c #251C1A",
"0  c #2C1B1A",
"q  c #291319",
"w  c #301D18",
"e  c #2C221B",
"r  c #2E2013",
"t  c #312415",
"y  c #332A15",
"u  c #34251B",
"i  c #36291C",
"p  c #392C1D",
"a  c #393117",
"s  c #2B210B",
"d  c #2A1529",
"f  c #351B2A",
"g  c #2A2422",
"h  c #3B2D21",
"j  c #332C2A",
"k  c #3A2E29",
"l  c #342729",
"z  c #3E3223",
"x  c #3D332C",
"c  c #36312D",
"v  c #3C3734",
"b  c #3C3C3C",
"n  c #44372B",
"m  c #46392D",
"M  c #433827",
"N  c #443A36",
"B  c #4B3E32",
"V  c #422635",
"C  c #484F1F",
"Z  c #465417",
"A  c #41550B",
"S  c #547617",
"D  c #454621",
"F  c #4D5323",
"G  c #535F25",
"H  c #54592A",
"J  c #4E4236",
"K  c #4D453E",
"L  c #53453B",
"P  c #56483B",
"I  c #5C6B2B",
"U  c #5D7228",
"Y  c #647534",
"T  c #4A3345",
"R  c #5B3F5C",
"E  c #4C4743",
"W  c #524642",
"Q  c #544A44",
"!  c #594E47",
"~  c #5D544E",
"^  c #5B4957",
"/  c #5D5652",
"(  c #545151",
")  c #63594A",
"_  c #625A55",
"`  c #675E5C",
"'  c #685D56",
"]  c #5E6B45",
"[  c #676459",
"{  c #6C6C52",
"}  c #735B76",
"|  c #6C6461",
" . c #6C6865",
".. c #756C64",
"X. c #746E6A",
"o. c #7A6E67",
"O. c #7C736C",
"+. c #76716E",
"@. c #7A6C74",
"#. c #7B7572",
"$. c #7C757C",
"%. c #797673",
"&. c #806F78",
"*. c #827973",
"=. c #837D7B",
"-. c #867778",
";. c #5B8416",
":. c #6DA41E",
">. c #5F8828",
",. c #6D8C31",
"<. c #769937",
"1. c #6F962C",
"2. c #7CBB26",
"3. c #7BA537",
"4. c #83B33C",
"5. c #85BB38",
"6. c #83C62B",
"7. c #8AD22F",
"8. c #87C632",
"9. c #8ACB34",
"0. c #8CC63F",
"q. c #8DCB3D",
"w. c #8FD339",
"e. c #8ED634",
"r. c #91D839",
"t. c #90CC3A",
"y. c #97E23C",
"u. c #809E55",
"i. c #8BBB4C",
"p. c #86B149",
"a. c #84AF4C",
"s. c #85807D",
"d. c #8B847D",
"f. c #848878",
"g. c #8D8E74",
"h. c #9AB66E",
"j. c #8CC540",
"k. c #8ECA41",
"l. c #91CD42",
"z. c #93D242",
"x. c #96DA41",
"c. c #98DB44",
"v. c #98D74A",
"b. c #9DE445",
"n. c #9FE945",
"m. c #9FE24B",
"M. c #A2ED49",
"N. c #A2EA47",
"B. c #A5F14A",
"V. c #A4E857",
"C. c #9ACD60",
"Z. c #9ED164",
"A. c #A9D96B",
"S. c #8F7A8C",
"D. c #868381",
"F. c #898483",
"G. c #8E8C8C",
"H. c #938B85",
"J. c #948E8A",
"K. c #9B938D",
"L. c #96908B",
"P. c #8C8290",
"I. c #988B93",
"U. c #9A9694",
"Y. c #9C9697",
"T. c #A19D9B",
"R. c #A19A97",
"E. c #A6A29E",
"W. c #9E8EA0",
"Q. c #ABA5A2",
"!. c #ADA7A8",
"~. c #B2AEAB",
"^. c #B6B1AE",
"/. c #BEBCBB",
"(. c #BAB6B6",
"). c #C2BEBB",
"_. c #B5DC85",
"`. c #C5C1BE",
"'. c #C8C3BF",
"]. c #C5BCC6",
"[. c #C6C4C2",
"{. c #CAC6C3",
"}. c #CCC8C5",
"|. c #CDCBCA",
" X c #CCC4CF",
".X c #D4CFCD",
"XX c #D4D0CE",
"oX c #D6D3D2",
"OX c #DBD6D4",
"+X c #DDDBDB",
"@X c #E0DDDB",
"#X c #E5E1DE",
"$X c #DACCE1",
"%X c #EAD7F3",
"&X c #E5E3E2",
"*X c #EBE9E7",
"=X c #EDECEB",
"-X c #E8E7E4",
";X c #F3F0EE",
":X c #F5F4F3",
">X c #FFFEFE",
",X c #F9F8F6",
/* pixels */
"                                                                                                                                ",
"                                                          k.                                                                    ",
"                                                                                                                                ",
"                                                          0.                                                                    ",
"                                                          0.          0.                                                        ",
"                                                        0.0.0.    0.0.0.                                                        ",
"                                                        0.0.0.  0.0.0.0.                                                        ",
"                                                      0.0.0.0.  0.0.0.0.                                                        ",
"                                                      k.0.0.0.  0.k.0.0.                                                        ",
"                                                      0.0.0.0.  0.0.0.0.                                                        ",
"                                                      0.0.0.0.  0.0.0.0.                                                        ",
"                                        0.            0.0.0.0.  0.0.0.0.            0.0.0.0.                                    ",
"                                      0.0.0.          0.0.0.0.  0.0.0.k.            0.0.0.0.                                    ",
"                                      0.0.0.          0.0.0.0.  0.0.0.0.            0.0.0.0.                                    ",
"                                      0.0.0.      0.  0.0.0.0.  0.0.0.0.            0.0.0.0.                                    ",
"                                      k.0.0.    0.0.  0.0.k.0.  0.0.0.0.            0.0.k.0.                                    ",
"                                      0.0.0.    0.0.  q.k.j.0.  0.0.0.k.            0.0.0.0.                                    ",
"                                      0.0.0.  0.0.0.  0.0.0.0.0.0.0.0.0.    0.0.    k.0.0.0.                                    ",
"                                      0.0.0.  0.0.0.  0.0.0.0.0.0.0.0.0.  0.0.0.0.  0.0.0.0.                                    ",
"                                      0.0.0.  0.0.0.  0.0.0.0.0.0.0.0.0.  0.0.0.0.  0.0.0.0.                                    ",
"                            0.0.0.    0.k.0.  0.0.0.  0.0.0.0.0.0.0.0.0.  0.0.0.0.  0.0.0.0.                                    ",
"                            0.0.0.    0.0.0.    0.0.  0.0.0.0.0.0.0.0.0.0.0.0.0.    0.0.k.0.                                    ",
"                            0.0.0.    0.0.0.0.0.0.0.0.0.0.0.0.0.j.k.0.0.0.0.0.0.    0.0.0.0.  0.0.0.                            ",
"                            0.0.0.    0.0.0.0.0.0.0.0.0.0.0.0.0.0.q.0.0.0.0.k.0.0.0.0.0.0.0.0.0.0.0.                            ",
"                            0.k.k.    0.0.0.0.0.0.0.0.0.0.0.z.z.z.q.0.0.0.0.0.0.0.0.0.0.0.0.0.0.0.0.                            ",
"                            0.0.0.0.  0.0.0.0.0.0.0.t.b.b.z.l.0.0.v.c.7.r.z.0.0.0.j.0.0.0.j.0.0.0.0.                            ",
"                            0.0.0.0.0.0.0.0.0.0.b.N.j.,.I D p p p y ] h.p.t.7.t.j.j.0.0.0.0.0.0.0.0.                            ",
"                            0.0.0.0.0.0.0.0.8.n.4.C l V $ 4 6 w 0 O l %X^ @ u.v.N.k.5.j.0.0.0.0.0.0.                            ",
"                            0.0.0.0.0.0.0.b.V.C , $ k *.@ J m 2 m r M '.< 6 %XQ.>.N.z.0.0.0.0.0.0.0.                            ",
"                            0.0.0.0.0.0.B.;.).} . M 1 K.k i o.3 P p y ~.. K.>Xd X F b.x.0.0.0.0.k.0.                            ",
"                            0.0.0.0.k.e.1.. T ,X7 < O H.d.. J.P t [ 7 Q.7 @X( X z # s m.c.0.0.0.0.0.                            ",
"                            0.0.0.0.b.A.# t . L.&X. 3 k }.% ..... o.U.G. .`.+ i t 3 R [ e.z.0.0.0.0.                            ",
"                          0.0.0.i.b.:.I.Y.X ' . [..X. . *.T.*.| @ + ~.@X^.R.X h O O.... F B.0.0.0.0.                            ",
"                          0.0.0.z.7.% . -X/ Q #.. #X[.. . K.>Xm < < * @X,X_ @ + _ F.* B - ,.N.0.0.0.0.                          ",
"                        0.0.0.0.7._.S.o 0 >X7 Y.J.X +X^.. & oXJ < h . R.>Xp + 7 |.$./ n 6 t q.z.0.0.0.                          ",
"                        0.0.0.l.6.~ (.=X| }.XX. Q.^.X.>XL.. ~.B 3 L r O.=X2 . ^.*Xv 8 8 z $ U n.j.0.0.0.                        ",
"                      0.0.0.0.b.<.X . ( *X>X>XN . / Y.;X>X%.J.M O ..m ' .X. Q ;Xg O i p y $ ).V.5.0.0.0.                        ",
"                      0.0.0.j.b.F 4 p O = Y.>XoX. O % v [.>X[.t O K.8 L.[.. [.[ X p i p O _ +X1.r.0.0.j.                        ",
"                      0.0.0.9.V.a 4 i h 1 . $.>XY.. i O . +X>XO n ^.. {.E.x {.X 3 t p i X {.T A M.0.0.0.0.                      ",
"                      0.0.j.8.A.@.O h i i 1 . %.>Xs.. P . x >XE J.d.. -Xs.J.` % *.W i . s./.. H b.0.0.0.0.                      ",
"                    0.0.0.0.b.S W.Q @ i M ! M . +.>X( : H.. Y.,XoX* 1 :XF.E.d.~.| h X v ,Xx X a c.k.0.0.0.                      ",
"                    0.0.0.0.b.S ^ ).. t p W -.H.j L.>X= E T.J.>X^.. L :XU.,X@Xg + + : >X+.. w ) z.q.k.0.0.                      ",
"                    0.0.0.0.b.<.. ^.Y.. i 1 7 ( Y.=.=XOX. v +X>XH.. | >X#X,X7 & & : >XY.. *.!.f.0.q.0.0.0.                      ",
"                    0.0.0.0.b.<.. X =X=.. p p & o ` &X>Xo.. g >X~.. J.>X>X/ X @ > +XL.. |.>XP.{ 8.0.0.0.0.                      ",
"                    0.k.0.j.w.p.&.c 9 +X+.. t z p . j *X>X< . oX@X. ^.>X[.X X 9 :X>Xs.oX&XJ.&.g.e.0.j.j.0.                      ",
"                      0.0.j.q.j.Q %. .X.>XG.. + o.z . k >XQ.. oX+X+ ;X>XL . N >X>XE.D.J * O . Z N.j.0.0.0.                      ",
"                      0.0.0.j.w.] $.{.;X*X>X+Xc K %.X . H.>Xe /.{.E >XoX. Q >X/.j + + O + y 5 <.b.0.0.0.                        ",
"                      0.0.0.j.w.h.&.) m h E ~.*X^.*X+.. + ,XXX@XE.=.>Xk b >XU.. * 2 . Q =.` m 0.z.0.0.0.                        ",
"                        0.0.0.c.2.X . . . . . j D.oX>XD.. *.>X>XK.+X/.x >XD.. & X 9 !.(.` ; G M.0.0.0.0.                        ",
"                        0.0.j.j.b.Y ^ U.[.OX.X`.U.Q.:X>X~.v *X>X@X>Xd.,X>XXXF.k ` ;X~.+ O 5 5.x.0.0.0.0.                        ",
"                        0.0.0.0.8.z.].>X|.=./ ) D.Q.&X>X>XOX@X>X>X:X,X>XD.!.>X>X>XX.. 3 - I M.0.0.0.0.                          ",
"                          0.0.0.j.e.p.d . O @ @ X X 9 =.>X>X>X>X>X>X>XW . X 0 =.+X{.d.f i x.z.0.0.0.0.                          ",
"                          0.0.j.0.k.y.Z - h p i p p 1 . N =X>X>X>X>X~.. i h 1 . < =.[.].v.9.j.0.0.0.                            ",
"                            0.0.0.0.k.B.G # u i i i i h . W >X>X>X>XB O h u i h t . . 4.b.0.j.0.0.                              ",
"                              0.j.0.0.k.B.U - q p i u i u X {.>X>X.X+ t i i p i - w 4.b.0.0.0.0.0.                              ",
"                                0.0.0.j.k.B.3.t - 0 p i p X U.>X>XU.X p p u 5 - F z.b.0.0.0.0.0.                                ",
"                                0.0.0.0.0.0.n.z.I w - 5 0 X R.>X>XH.. q , 4 D <.M.x.0.0.0.0.0.                                  ",
"                                  0.0.0.0.0.0.z.B.l.,.F y O  X>X>XI.o M I 3.m.n.0.0.0.0.0.0.                                    ",
"                                      0.0.0.0.0.j.z.b.N.0.4.C.Z.Z.j.4.x.N.c.0.0.0.0.0.0.0.                                      ",
"                                        0.0.0.0.j.j.0.0.z.c.6.2.2.9.c.k.0.0.0.0.0.0.0.0.                                        ",
"                                            0.0.0.0.0.0.0.0.j.j.k.0.0.0.0.0.0.0.0.0.                                            ",
"                                                0.0.0.0.k.0.0.0.0.0.0.j.0.0.0.0.                                                ",
"                                                    0.0.0.0.0.0.0.0.0.0.0.                                                      ",
"                                                            0.0.0.0.                                                            "
};
