/* XPM */
static char *_562243847716[] = {
/* columns rows colors chars-per-pixel */
"48 48 242 2 ",
"   c #010102",
".  c #0A0403",
"X  c #01030A",
"o  c #030A0C",
"O  c #0B0C0C",
"+  c #090709",
"@  c #1B0000",
"#  c #140B03",
"$  c #130C0C",
"%  c #190A05",
"&  c #1B1606",
"*  c #020611",
"=  c #0E1212",
"-  c #081818",
";  c #131414",
":  c #1B1C1C",
">  c #171818",
",  c #190610",
"<  c #270605",
"1  c #380405",
"2  c #261609",
"3  c #391A05",
"4  c #271917",
"5  c #381A1A",
"6  c #3B2B03",
"7  c #29250B",
"8  c #1A2727",
"9  c #1C3030",
"0  c #242424",
"q  c #2C2D2D",
"w  c #272A29",
"e  c #352A29",
"r  c #283336",
"t  c #333A3B",
"y  c #3C3C3C",
"u  c #383534",
"i  c #3D342E",
"p  c #4B0204",
"a  c #590303",
"s  c #461D1D",
"d  c #4C1C0B",
"f  c #640101",
"g  c #6C0202",
"h  c #6C0B01",
"j  c #770404",
"k  c #661B1C",
"l  c #771818",
"z  c #74110C",
"x  c #472604",
"c  c #592905",
"v  c #493706",
"b  c #553A06",
"n  c #513712",
"m  c #662A05",
"M  c #693408",
"N  c #763504",
"B  c #702E00",
"V  c #472929",
"C  c #572929",
"Z  c #443B3C",
"A  c #493C3B",
"S  c #583C3C",
"D  c #49382A",
"F  c #682727",
"G  c #782826",
"H  c #663535",
"J  c #773737",
"K  c #6B2D32",
"L  c #584404",
"P  c #624504",
"I  c #775604",
"U  c #705616",
"Y  c #7C6311",
"T  c #544636",
"R  c #52442C",
"E  c #6C552C",
"W  c #353A4C",
"Q  c #7E3F44",
"!  c #3D4443",
"~  c #384647",
"^  c #3C4355",
"/  c #444444",
"(  c #4B4C4C",
")  c #464748",
"_  c #554949",
"`  c #454B55",
"'  c #4A5558",
"]  c #545454",
"[  c #5B5353",
"{  c #5B5C5C",
"}  c #565B5A",
"|  c #53504C",
" . c #684545",
".. c #794848",
"X. c #695656",
"o. c #7B5858",
"O. c #645A4E",
"+. c #656558",
"@. c #766C56",
"#. c #565B66",
"$. c #495267",
"%. c #4D6565",
"&. c #586566",
"*. c #5A6878",
"=. c #646464",
"-. c #656A6A",
";. c #6C6C6C",
":. c #686665",
">. c #796969",
",. c #686C77",
"<. c #6C7272",
"1. c #647B7B",
"2. c #747474",
"3. c #757A7B",
"4. c #7B7C7B",
"5. c #767577",
"6. c #72736A",
"7. c #5C6061",
"8. c #850804",
"9. c #9A1206",
"0. c #891515",
"q. c #931310",
"w. c #AB1606",
"e. c #853B01",
"r. c #983B04",
"t. c #9D2A0D",
"y. c #B63200",
"u. c #901F22",
"i. c #862525",
"p. c #982A28",
"a. c #833C3C",
"s. c #873737",
"d. c #963A3A",
"f. c #A93434",
"g. c #CD2800",
"h. c #C51B00",
"j. c #984402",
"k. c #8C5307",
"l. c #A64903",
"z. c #B04E04",
"x. c #866607",
"c. c #986805",
"v. c #936E0E",
"b. c #A67802",
"n. c #B27C03",
"m. c #8A5630",
"M. c #947C35",
"N. c #CE4D01",
"B. c #AC3E40",
"V. c #8B4343",
"C. c #854848",
"Z. c #994949",
"A. c #885858",
"S. c #965959",
"D. c #A84343",
"F. c #B74E4E",
"G. c #A65757",
"H. c #B85757",
"J. c #866666",
"K. c #966767",
"L. c #877A7A",
"P. c #997878",
"I. c #A56465",
"U. c #BA6A6A",
"Y. c #A67676",
"T. c #B77777",
"R. c #946F57",
"E. c #C65959",
"W. c #C76767",
"Q. c #C77979",
"!. c #D26C6C",
"~. c #E47676",
"^. c #AE8603",
"/. c #B98802",
"(. c #BF9615",
"). c #B08D34",
"_. c #BCA01E",
"`. c #C98A03",
"'. c #C79603",
"]. c #D0920A",
"[. c #D6A303",
"{. c #C49225",
"}. c #E0960F",
"|. c #988854",
" X c #A78444",
".X c #928F72",
"XX c #A29772",
"oX c #707684",
"OX c #857F82",
"+X c #7D8586",
"@X c #7D8C96",
"#X c #838585",
"$X c #848C8C",
"%X c #8A8A8A",
"&X c #8A8B85",
"*X c #978585",
"=X c #8B9395",
"-X c #949595",
";X c #95999A",
":X c #9D9D9D",
">X c #999496",
",X c #8C8D93",
"<X c #A98B8C",
"1X c #B78989",
"2X c #A79898",
"3X c #B89999",
"4X c #869CA7",
"5X c #9EA5A5",
"6X c #A4A4A4",
"7X c #ADA5A5",
"8X c #ABACAC",
"9X c #A3AAAB",
"0X c #B7A7A7",
"qX c #ADB4B5",
"wX c #B8B6B6",
"eX c #AEA298",
"rX c #C48989",
"tX c #C89696",
"yX c #DA9696",
"uX c #D68888",
"iX c #E78C8C",
"pX c #E79999",
"aX c #C9A9A9",
"sX c #D6A8A8",
"dX c #C7B6B6",
"fX c #D7B6B6",
"gX c #E8BBBB",
"hX c #E7A2A2",
"jX c #CA9FA0",
"kX c #B9BCC1",
"lX c #BAC5C5",
"zX c #C9C8C9",
"xX c #DCC5C5",
"cX c #D4D5D5",
"vX c #CBD4D7",
"bX c #E9C8C8",
"nX c #E9D4D4",
"mX c #F4D9D9",
"MX c #F1C6C6",
"NX c #E5E6E6",
"BX c #F3F5F5",
"VX c None",
/* pixels */
"VXVXVXVXVXVXVXVXVXVXVXVXVXVXVXVXVXVXd.zXZ.jX.XG.dXd.aX<XD.2X_ VXVXVXVXVXVXVXVXVXVXVXVXVXVXVXVXVX",
"VXVXVXVXVXVXVXVXVXVXVXVXVXVXVXK.Q.2XS.tXrXhXsXuXxX!.MXrXQ.2Xd.fXOXVXVXVXVXVXVXVXVXVXVXVXVXVXVXVX",
"VXVXVXVXVXVXVXVXVXVXVXVXVXS.0XY.Q.bXU.tXo. .A e e V [ K 0XU.iXnXZ.3X3XC VXVXVXVXVXVXVXVXVXVXVXVX",
"VXVXVXVXVXVXVXVXVXVXVXZ.dXY.iXxXJ X.%   = ; 0 w q 0 = =   . ` H !.mXK.T.0XVXVXVXVXVXVXVXVXVXVXVX",
"VXVXVXVXVXVXVXVXVXH zXS.iXnXF t + > : ` 9X:X5X#X$X8X#X&.3.=.8 . 9 s W.mXK.W.>.VXVXVXVXVXVXVXVXVX",
"VXVXVXVXVXVXVXVX%Xd.rXnXG /   ; 4.8X3.<.>.4 ..K.H J J.+.5.5X=X5.y O 9 _ E.hXOXs.VXVXVXVXVXVXVXVX",
"VXVXVXVXVXVXVXa.0XfXF.+X  : w X { *XV.p.p.B.i.a G F.D.0.j s.o.3.8X%Xq   &.3XW.<X7XVXVXVXVXVXVXVX",
"VXVXVXVXVXVX:XK.!.nX2   w 3.| < z 8.p  .2X@X' ' +X4X:.L m.I.f.i.A.&XqX=.    tXnXV.G.VXVXVXVXVXVX",
"VXVXVXVXVXQ Y.mXS.5   0 ;.| s.f.I.W ' +X%X=.( #X-X<.U '.XX@X1.m 8.d.<Xy O ; - G ~.0XL.VXVXVXVXVX",
"VXVXVXVXVX0XT.uX' = ( ) o.p.G.%X%.{ &X%X2.] ;.#X$XO.b.).&XoXE b.|.K.0.< ) ;X: ; 8XtXZ.J VXVXVXVX",
"VXVXVXVXB.rXnX< o 3.=XK.j Q @X-.Z -.#X#X} ] #X#X,.Y ^.L.@X[ c.{.&X*.b 9.V.;X4.:   W.tXwXVXVXVXVX",
"VXVXVX:XOXE..X- :.$XS.f i +X4.| ( 4.4.;.) :.%X3.O.c.)..X,.E '.|.oXE /.R.u.a.6X#XO %.sXS.Z.VXVXVX",
"VXVXVXG.bX2X  } qX .g V &.L.=.) 6.5.2.{ [ 4.5.-.U `.R.oX[ ^._.4.#.c.}..XoXq...4.{   G hXwXVXVXVX",
"VXVX8XP.E.<.8 ] _ f C %.5.;.| ] 4.;.=.) ;.#X,._ c.{.5.*.E /.|.*.T `. X<.&.d 9.S 5.: r 0XK.D.VXVX",
"VXVXT.bXP.  5.3.k z ' <.;.{ ! :.2.:.| ) 5.2.#.U `.|.,.) c.{.6.' k.`.>.*.D e.t.G q t   k uXwXVXVX",
"VX-XS.W.;.  ( >.q./ <.=.=.) ) ;.=.{ / ;.#X#.| b._.+.#.E `. X%.R /. X-.} N z.6.0.H 5.q 9 aXK.C.VX",
"VX3XxX<X  q W d.z %.2.{ ' T ;.:.{ ) ) 5.-.' U '.M.$.` c.].:.^ x.`.@.#.D j.m.&...B.+.`   s.Q.tXVX",
"VXs.W.<X: ;XL.8.Z <.X.{ W ) 4.] | / +.:.' / b.{.7.$.R /.M.$.D /.M.#.` M l.X.#.u j P.4.  X.fXK.VX",
":.2XsX5 ) 9XV z %.;.| ) / 6.{ ] / / ;.} ` U /.M.$.W b.'.+.~ v.].@.' V r.m.] ) n 9.S.%Xt . U.G.J ",
"a.S.fXt { %Xk F %.( y q y :.y y q | ] W e I b._ W v c.Y W i b.m.~ r c j.S ! w B r.l %X#X  aX3X0X",
"8X1XG.> -.:.l 4 <.:X5X-X=.y 2.{ -X:X>X#Xu R .X:X;X*XE =.) & 6 +.{ =. .XX6X-X*XeXS g | /   C.T.d.",
"Y.sXdX$ 5.[ a e NXwX8XzXcX5.zX7XNX>X>XzXqX,XvX-X-XzX@XwX2.    6X6XzX3.=XlXBXzXkXr f @     >.sXdX",
"C.T.S.> qXL.p / BX: . : [ <.cX6X8X( >XwX6XwX&X    : / zX;.    :X:XcXX.  0 NX/ +   f V -.O S tXS.",
"wXxX*X; OXO.a ! NX      > ] cXqX6Xt NXcXq 6X8X4 : | } zX%X4 0 wX6XcX{   ; NXu     a H 9X= _ yXU.",
"d.T.K.O $   a y BXoX-.+XkX+XvX5X=X  ~ qX&.<.vX9X5XvX@X+XlX5X5XcX<.cX&.  8 BX~     f o.-X$ A fX7X",
"7XaX<X    4 g > <XfXdXfX<X .<X .S < % Q  .e o.J.J.>.s V J.P.L.' w <X .@ < 3XV < . g L.#X; X.!.d.",
"I.1X1X. ; { z < V.I.S.K.J F C.J J S.J F F J K F J J Q J J J C a 8.a.J ..A.S.a.K < g [ ;.+ >.gXdX",
"K.P.1X4 / 2.l s / A e T Z e T Z Z ( _ Z Z / u T _ A _ A A u r 0.9.V y ( O.A _ y 2 f Z 5.o G.Y.K.",
"OX<XjXV } 5XE f ~ : o o w ! =   & x.L o   v I & o 6 x.7     m c < + 3 N & + o v t.l #.] + xXT.d.",
"C a.Q. .W wX>.0.{ O   + ] ]     P '.6   % /.^.. . b.n.#   3 z.x   . m e.#   # j.h.A.5.t 2 W.OX2.",
"VX7XsX0X+ ( ;.u.s     w -.:   2 ^.c.    b '.v   L [.L   . e.r..   2 z.x     c y.9.#X#X= #XpXZ.VX",
"VXS.Y.H.4 q #.< j   O } +.    L `.6   # b.b.. . ^.^.#   d l.x     N j.%   # j.w.V.5X;.  Z.dXdXVX",
"VXX.L.gX*X= -X/ f 1 9 ;.0   & n.c.+   b '.b   v [.I   + j.j.#   % j.x .   x N.8.X.6X: ' iXV.X.VX",
"VXVX<XT.G.: -.$X@ j [ '     M ].x X & b.b..   c./.&   3 j.c X   N r.% X . k.g.< 4.oX  a.bXaXVXVX",
"VXVX..J.nX2X. 9X#XG p.9   % b.n.X   P [.b X 6 `.I X . j.j.$   2 l.c + X x g.i.> r > 1.iXC..XVXVX",
"VXVXVX7XT.F.e ~ :X:.l a   b }.v X & ^.^.O   c./.& X 2 j.c X X M l.2 X & w.8.e :X: . I.xX1XVXVXVX",
"VXVXVXC C.bXzX@ ( <.0 l z b.n.+ X v /.P * 6 ].I * + e.j.2 X % l.m o o h q.X.-.;.+ 7X!.C.oXVXVXVX",
"VXVXVXVX6XP.W...9 { 3.$ h N.M * # x.^.= X I /.7 * 3 z.M * X N l.4 o f g >.$X=.- p sX3XG.VXVXVXVX",
"VXVXVXVXVXd.<XmXC.. y   $ k g p v ^.P X x `.I * + N z.4 * & j.L 1 f k X.9X;.  ] MXG.P.VXVXVXVXVX",
"VXVXVXVXVX' 2XI.Q.;X= + 3.=X_ f t.N.4 o Y /.7 X 3 l.b - o c g.8.z s 5.8X:.- X.F.fX3Xs VXVXVXVXVX",
"VXVXVXVXVXVXs A.dXhXk r ~ #X&X:X .G f h N.z., , e.z.d 1 a 9.p...5.8X4.r , d mXQ.V.;.VXVXVXVXVXVX",
"VXVXVXVXVXVXVX=.Y.S.mXfX1 - t { -.4.L...G z f g 8.8.f k ..[ ;.;X( ! O . qX~.Y.wXC VXVXVXVXVXVXVX",
"VXVXVXVXVXVXVXVXVX2X*XH.sX7X< o ^ 2.:X-X=X;X&X! . 4 t ( 7X) O r o   ,XE.gX<Xd.| VXVXVXVXVXVXVXVX",
"VXVXVXVXVXVXVXVXVXVXa.J.0X!.1X2X1 > w w t ! 3.]   ; ( 8 > O   @ %XF.bXrXa.7XVXVXVXVXVXVXVXVXVXVX",
"VXVXVXVXVXVXVXVXVXVXVX-.S.A.aXW.rXfXG | 5 $ ; o . < < 0 S K aXE.gXrXC.0XH VXVXVXVXVXVXVXVXVXVXVX",
"VXVXVXVXVXVXVXVXVXVXVXVXVX#XP.C.7XU.tXMXW.xXU.1X1XOXsXQ.MXQ.sXY.A.7XJ VXVXVXVXVXVXVXVXVXVXVXVXVX",
"VXVXVXVXVXVXVXVXVXVXVXVXVXVXVX=.*Xs.>XK.K.3XI.aXT.1X1XS.<XC.*XI.S VXVXVXVXVXVXVXVXVXVXVXVXVXVXVX",
"VXVXVXVXVXVXVXVXVXVXVXVXVXVXVXVXVXVXVXK &XP.V.9XV.*XY.C.5.VXVXVXVXVXVXVXVXVXVXVXVXVXVXVXVXVXVXVX"
};
