/* XPM */
static char *_6fc218612304758c93a46ce4448975arJhdLDn8z7QWycQx[] = {
/* columns rows colors chars-per-pixel */
"32 32 168 2 ",
"   c None",
".  c #020000",
"X  c #0A0101",
"o  c #0F0A07",
"O  c #120401",
"+  c #1F0704",
"@  c #1B0B04",
"#  c #1B0708",
"$  c #15110F",
"%  c #1A100A",
"&  c #1F0014",
"*  c #1F1A15",
"=  c #21010F",
"-  c #231707",
";  c #231E0C",
":  c #200014",
">  c #260A1D",
",  c #211912",
"<  c #281815",
"1  c #313B0D",
"2  c #262714",
"3  c #342416",
"4  c #312419",
"5  c #393118",
"6  c #3F3B1D",
"7  c #2C1A2A",
"8  c #331A2C",
"9  c #2E1431",
"0  c #3D1F3F",
"q  c #2F2621",
"w  c #3A2826",
"e  c #362C23",
"r  c #3B352D",
"t  c #3B3633",
"y  c #353333",
"u  c #443A35",
"i  c #44353A",
"p  c #443E3C",
"a  c #473B38",
"s  c #3B430C",
"d  c #465718",
"f  c #486415",
"g  c #4A4D21",
"h  c #4B433B",
"j  c #52483A",
"k  c #585B3E",
"l  c #567020",
"z  c #5B6631",
"x  c #3E2544",
"c  c #402245",
"v  c #4A2C40",
"b  c #4B3152",
"n  c #4E4440",
"m  c #4D4A45",
"M  c #4D444C",
"N  c #524046",
"B  c #544D49",
"V  c #54504D",
"C  c #575351",
"Z  c #5D5653",
"A  c #5E5A59",
"S  c #695F57",
"D  c #635D5B",
"F  c #63515E",
"G  c #5D6942",
"H  c #647240",
"J  c #66615C",
"K  c #614F6F",
"L  c #685B66",
"P  c #6E567C",
"I  c #775F7B",
"U  c #676561",
"Y  c #696663",
"T  c #706C6C",
"R  c #74706D",
"E  c #797969",
"W  c #756B73",
"Q  c #74687D",
"!  c #757372",
"~  c #7A7573",
"^  c #7E7973",
"/  c #837E79",
"(  c #63852E",
")  c #6B9C26",
"_  c #6C8B32",
"`  c #73AE20",
"'  c #7FAD3A",
"]  c #7BA736",
"[  c #728548",
"{  c #81B139",
"}  c #88BF3D",
"|  c #81BC33",
" . c #83C42D",
".. c #81CA28",
"X. c #8AD52E",
"o. c #8CCD34",
"O. c #8CC53F",
"+. c #8DCB3D",
"@. c #86C03B",
"#. c #8DD237",
"$. c #8FD239",
"%. c #92DA34",
"&. c #91D33D",
"*. c #97DE3C",
"=. c #97E13B",
"-. c #99E13A",
";. c #87B14F",
":. c #86986A",
">. c #888970",
",. c #87817E",
"<. c #93877D",
"1. c #8D957B",
"2. c #8CC440",
"3. c #8FCA41",
"4. c #8CC148",
"5. c #90CB44",
"6. c #94D443",
"7. c #97DA42",
"8. c #9ADE44",
"9. c #98D248",
"0. c #95CA51",
"q. c #A0D756",
"w. c #9CE344",
"e. c #9FE845",
"r. c #A1EC46",
"t. c #A3EC4B",
"y. c #A5F049",
"u. c #A9F64E",
"i. c #ABEE53",
"p. c #7A6D81",
"a. c #848382",
"s. c #8D8D89",
"d. c #97918B",
"f. c #96889F",
"g. c #949393",
"h. c #9B9896",
"j. c #9D9B9A",
"k. c #9B9590",
"l. c #A09E96",
"z. c #A29E9A",
"x. c #A7BD82",
"c. c #A4A693",
"v. c #A29BA8",
"b. c #ABA6A3",
"n. c #AEA9A6",
"m. c #AEABAB",
"M. c #B2AFAD",
"N. c #B7B3AF",
"B. c #B7B6B6",
"V. c #BBB8BC",
"C. c #C1BEBC",
"Z. c #CBC9C7",
"A. c #C8C7C8",
"S. c #C7C9CA",
"D. c #C9C7C8",
"F. c #D3D2D1",
"G. c #DEDAD7",
"H. c #E2DFE4",
"J. c #E2E2E3",
"K. c #EAE8E7",
"L. c #EAE9E8",
"P. c #EEEFF0",
"I. c #F2EFF0",
"U. c #EEF1F0",
"Y. c #F8F7F6",
"T. c #F7F8F8",
"R. c #FDFDFD",
"E. c #F4F4F5",
/* pixels */
"                                                                ",
"                                                                ",
"                            3.    O.                            ",
"                            2.O.O.O.                            ",
"                            O.3.O.O.                            ",
"                            O.O.O.O.      O.3.                  ",
"                  +.O.      O.O.3.O.      O.O.                  ",
"                  O.O.    O.O.O.O.O.      O.+.                  ",
"                  O.3.  O.O.O.O.O.3.      O.O.                  ",
"                  O.O.O.O.  O.O.O.O.O.O.  O.O.                  ",
"              O.  O.O.  O.O.O.O.O.O.O.O.  O.O.                  ",
"              O.    O.O.O.O.3.6.6.O.O.3.O.O.O.O.2.              ",
"              O.O.O.O.O.w.e.6.2.3.$.=.o.2.2.O.O.O.              ",
"              O.O.O.6.%.] z 5 3 - >.[ 2.u.+.O.O.O.              ",
"              O.2.$.*.:.. v i w = N Q f.f =.6.O.O.              ",
"              O.+.i.2 P Z t / u h ~ z.p . H e.3.O.              ",
"            O.O.=.z b r m.y A d.. B.C.. D c l r.O.              ",
"            O.%.;.K A.! U J.J J X ^ ^ p m.< # } 7.O.            ",
"            O.8.1 7 V.Z.X ~ R.B * <.R ! e O 0 x.X.2.            ",
"          O.+.q.i O . g.g.. ~ n.u ,.b.C 3 o p.z o.3.O.          ",
"          O.7.' W < 4 t S.~ * T.J Z Y.d.X T L ; 9.&.O.          ",
"          O.w.) M ~ X 4 D E.t M.J m.P.. V V.v.j.| +.O.          ",
"          O.+.2.i V.B.% . ! h.T j.Z.h A T.R F k &.3.O.          ",
"            O.$.E L s.a.k.$ ~ F.N.,.C j.o q > d r.O.            ",
"            O.e.( x Y a.K.H.Y L.G.C.P.B h T 8 { 7.2.            ",
"            O.@.*.c.Q j u M.R.T.R.F.V b.U.c s y.2.              ",
"              O.8.` X X @ . T R.R.m . O 9 1.t.O.O.              ",
"                } r.6.r & + . J.K.O : : s ..7.2.                ",
"                O.O.8.e._ 6 # H.S.O g ] t.6.O.                  ",
"                    } 3.e.w.2.0.4.2.e.w.O.O.                    ",
"                      O.O.2.7. . .6.2.2.O.                      ",
"                            2.2.3.2.                            "
};
