/* XPM */
static char *_562243822700[] = {
/* columns rows colors chars-per-pixel */
"32 32 231 2 ",
"   c #010102",
".  c #0B0502",
"X  c #01030C",
"o  c #040A0A",
"O  c #0B0B0B",
"+  c #090908",
"@  c #120C06",
"#  c #170A05",
"$  c #1E150B",
"%  c #1A1405",
"&  c #000412",
"*  c #1B1414",
"=  c #1A1D1D",
"-  c #12191B",
";  c #0C1111",
":  c #250604",
">  c #3D0202",
",  c #261B1B",
"<  c #371819",
"1  c #311703",
"2  c #292207",
"3  c #3B2A05",
"4  c #2A261C",
"5  c #181B21",
"6  c #222525",
"7  c #2A2323",
"8  c #2C2B2B",
"9  c #262D2D",
"0  c #332D2D",
"q  c #382726",
"w  c #2C3434",
"e  c #343333",
"r  c #3B3433",
"t  c #333A3A",
"y  c #3B3A3A",
"u  c #383538",
"i  c #460404",
"p  c #550201",
"a  c #590A0A",
"s  c #461918",
"d  c #551819",
"f  c #5E1500",
"g  c #690D06",
"h  c #641817",
"j  c #751C17",
"k  c #71180A",
"l  c #462705",
"z  c #5E2B04",
"x  c #473A0B",
"c  c #543903",
"v  c #4A281F",
"b  c #612B03",
"n  c #6A2B02",
"m  c #6D3406",
"M  c #733304",
"N  c #783905",
"B  c #462B2B",
"V  c #55292A",
"C  c #42392C",
"Z  c #4A3434",
"A  c #483939",
"S  c #583535",
"D  c #593C25",
"F  c #622C2D",
"G  c #6A2424",
"H  c #782829",
"J  c #682E32",
"K  c #683738",
"L  c #72393A",
"P  c #7A3D3D",
"I  c #703639",
"U  c #5D4708",
"Y  c #755804",
"T  c #794800",
"R  c #48413B",
"E  c #564A3B",
"W  c #57432D",
"Q  c #6A5426",
"!  c #6C5D3E",
"~  c #734938",
"^  c #6F602F",
"/  c #7C6833",
"(  c #383D4A",
")  c #354141",
"_  c #3A4043",
"`  c #434444",
"'  c #444C4C",
"]  c #4C4D4C",
"[  c #494649",
"{  c #584A48",
"}  c #4E504F",
"|  c #5E574A",
" . c #464A56",
".. c #4C5555",
"X. c #475254",
"o. c #545454",
"O. c #5C5353",
"+. c #535B5B",
"@. c #5B5B5B",
"#. c #56575B",
"$. c #634B4B",
"%. c #614545",
"&. c #724C4C",
"*. c #7A4D4D",
"=. c #794343",
"-. c #6A5556",
";. c #7E5454",
":. c #755959",
">. c #775656",
",. c #62625D",
"<. c #706649",
"1. c #565D64",
"2. c #4D556A",
"3. c #5C6465",
"4. c #5C6A6B",
"5. c #566163",
"6. c #5E6579",
"7. c #656565",
"8. c #6D6464",
"9. c #636D6C",
"0. c #6B6B6A",
"q. c #656769",
"w. c #786363",
"e. c #776569",
"r. c #74716E",
"t. c #6A7476",
"y. c #737474",
"u. c #717E7E",
"i. c #7B7B7B",
"p. c #797576",
"a. c #6B7070",
"s. c #8F1D02",
"d. c #8F1604",
"f. c #8D3D03",
"g. c #813200",
"h. c #9D3700",
"j. c #8C240D",
"k. c #BA2C01",
"l. c #AA3303",
"z. c #842C2B",
"x. c #9B3A28",
"c. c #893735",
"v. c #983937",
"b. c #862F34",
"n. c #9B4503",
"m. c #954A03",
"M. c #984B14",
"N. c #A34E03",
"B. c #8B6409",
"V. c #966D05",
"C. c #997609",
"Z. c #8E6D18",
"A. c #A57302",
"S. c #AD7A03",
"D. c #A77B01",
"F. c #B57903",
"G. c #A7631D",
"H. c #9A7C22",
"J. c #834C4C",
"K. c #8A4949",
"L. c #855A5A",
"P. c #8A5F5F",
"I. c #945B5B",
"U. c #945758",
"Y. c #8B4B4F",
"T. c #8C6D4C",
"R. c #866363",
"E. c #8A6363",
"W. c #8B6B6B",
"Q. c #836B6B",
"!. c #976767",
"~. c #887676",
"^. c #957373",
"/. c #9D7C7C",
"(. c #997575",
"). c #916F74",
"_. c #A76A6B",
"`. c #A16666",
"'. c #B36F6F",
"]. c #A37171",
"[. c #AA7676",
"{. c #B37575",
"}. c #BB7A7A",
"|. c #B67A7A",
" X c #C27D7D",
".X c #CB7E7E",
"XX c #B68708",
"oX c #B78615",
"OX c #AF8B0E",
"+X c #998437",
"@X c #B18632",
"#X c #C19204",
"$X c #9D8F5F",
"%X c #A88A48",
"&X c #A5944A",
"*X c #86847C",
"=X c #787B83",
"-X c #7C8284",
";X c #798586",
":X c #828282",
">X c #858B8B",
",X c #8C8B8C",
"<X c #82858C",
"1X c #958D8E",
"2X c #958F90",
"3X c #899496",
"4X c #9B9B9B",
"5X c #979595",
"6X c #AA8383",
"7X c #BD8383",
"8X c #BD8D8D",
"9X c #B38888",
"0X c #BD9393",
"qX c #B79191",
"wX c #9EA5A5",
"eX c #AAABAB",
"rX c #A3A7A8",
"tX c #ADAEB0",
"yX c #BBBBBB",
"uX c #B3B3B4",
"iX c #C38484",
"pX c #C38B8B",
"aX c #CB8B8B",
"sX c #CA8383",
"dX c #C39393",
"fX c #C79B9B",
"gX c #D09898",
"hX c #CEA4A4",
"jX c gray76",
"kX c #D2D2D2",
"lX c None",
/* pixels */
"lXlXlXlXlXlXlXlXlXlXlXlXlXlX:.L.W.;.lXlXlXlXlXlXlXlXlXlXlXlXlXlX",
"lXlXlXlXlXlXlXlXlXlXL.0X{.!.P.&.&.E.I.6XiXE.lXlXlXlXlXlXlXlXlXlX",
"lXlXlXlXlXlXlXlX^.iX/.q * _ ' X...) w 8 0 J.9X!.lXlXlXlXlXlXlXlX",
"lXlXlXlXlXlXlXfX`.7 = u.@.~.>.!.;.W.w.>X3.t , Q. XlXlXlXlXlXlXlX",
"lXlXlXlXlXlXgX$.= w @ I.z.K.Y.d J.U.h b.U.1X;Xw A }.w.lXlXlXlXlX",
"lXlXlXlXlXaXZ o ,.=.c.F { 3X4.a.3X<.OX,X=.j._.q.  8 }.:.lXlXlXlX",
"lXlXlXlXaXA w 7.c.U.y.5.>Xp.-.:Xi.V.$X=XY &XJ.p 8...7 7XlXlXlXlX",
"lXlXlX}.e.t >Xz.S ;Xo.q.:Xo.0.<X! OXi.<.oX:X^ G.v.2X` A 8XlXlXlX",
"lXlX*.qX* ;XG V a.7.o.i.0.O.i.1.V.%X6.C.&X1.F.$X-.b.t.= P.W.lXlX",
"lXlXhXZ 3.K h 3.a.[ 7.r.] q.t.<.XXy.{ XXr.Q oXt.D j.J t ,  XlXlX",
"lX:.'.; o.z.O.0.o.] 0.@.} i.#.C.+X2.Z.@X .A.T.1.f.T.b.7.6 E.*.lX",
"lX].8...>.G 9.,.` 0.,.` ,.7.E XX,.{ XX-.Q oX1.D M.5.F U. .q 9XlX",
"lXfXr >XG $.+.y o.@.` R +.` B.H.( B.H._ S.Z.( g.~ ( n x.;X7 {.lX",
"lX{.A y.h o.:Xp.o.o.@.:X=X` Q *Xp./ @.7 U @. .T.~.r.T.h 8.6 !.lX",
"lX|.` p.> rX,X>X4XrXjX5X4XyXrXi.r.>XtXO = uXeX3.uXjX1.i < o (.lX",
"-.(.' ~.> rXO   8 eXyX@.kXp.eX8 ; ] yX6 t yXeX  +.:X  > R.t L.&.",
"%.].+ # i wX5X2X4XrX5X= ] y.r.eXeXp.i.eXtX=XeX  @.:X  > (.( ;.>.",
"lX7X+ r d K {.{.~ J.L L F F J L L I I ~ V a *.F J.Y.s i e.w ^.lX",
"lX8Xr r.h r e 0 0 r 0 E R 0 C C r E r 8 v d.q E R r q g O.y _.lX",
"lX7XA 3XK.E o   } -   D.2   A.2 % A.. # f.. . N .   h.x.4.7 9XlX",
"lX/.R.9 -.a   8 o.  U V.  c C.  V.Y   M b   n b   l k.^.5.{ [.lX",
"lXlX0Xr q.a : +.6 . A.3   A.3 % #X@ $ n.. # f.# + h.j.3Xw _.%.lX",
"lXlX7X-.a.{ j ]   c A.  c S.X Y Y   M z   b n X l k.< 4.B 8XlXlX",
"lXlX{ iX0 3X*.a O F.l X XXx @ F.$ % n.@ @ n.$ + s.G 1.. 8X&.lXlX",
"lXlXlX6X].w 4.d s.A.X 3 D.X Y B.X M m X z M o p v.t.y Q.'.lXlXlX",
"lXlXlXlXdXR.y 5 s k : V.U @ S.2 # N.* @ m.1 p P 3Xt { .XlXlXlXlX",
"lXlXlXlXlXpXW.  u.r.c.l.: T B.& M N & g l.H :.>Xu $.sXlXlXlXlXlX",
"lXlXlXlXlXlX7XqX0 _ 9.e.*.x.j p j.g G P e.q.+.* ).sXlXlXlXlXlXlX",
"lXlXlXlXlXlXlXI.hXK t [ u.u.-X-.. e #._ o 8 S pX[.lXlXlXlXlXlXlX",
"lXlXlXlXlXlXlXlXlX0X X^.Z 0 8 0 + 7 7 Z R.pX7X-.lXlXlXlXlXlXlXlX",
"lXlXlXlXlXlXlXlXlXlXlX!.dX}.fX|.|.pXpX X/.lXlXlXlXlXlXlXlXlXlXlX",
"lXlXlXlXlXlXlXlXlXlXlXlXlXlXlXlXlXlXlXlXlXlXlXlXlXlXlXlXlXlXlXlX"
};
