<?xml version="1.0" encoding="UTF-8" standalone="no"?>
<svg
   xmlns:dc="http://purl.org/dc/elements/1.1/"
   xmlns:cc="http://creativecommons.org/ns#"
   xmlns:rdf="http://www.w3.org/1999/02/22-rdf-syntax-ns#"
   xmlns:svg="http://www.w3.org/2000/svg"
   xmlns="http://www.w3.org/2000/svg"
   xmlns:sodipodi="http://sodipodi.sourceforge.net/DTD/sodipodi-0.dtd"
   xmlns:inkscape="http://www.inkscape.org/namespaces/inkscape"
   id="ic_error_sync"
   width="24"
   height="24"
   viewBox="0 0 24 24"
   shape-rendering="geometricPrecision"
   version="1.1"
   sodipodi:docname="ic-check-sync-off.svg"
   inkscape:version="0.91 r13725">
  <metadata
     id="metadata19">
    <rdf:RDF>
      <cc:Work
         rdf:about="">
        <dc:format>image/svg+xml</dc:format>
        <dc:type
           rdf:resource="http://purl.org/dc/dcmitype/StillImage" />
      </cc:Work>
    </rdf:RDF>
  </metadata>
  <sodipodi:namedview
     pagecolor="#ffffff"
     bordercolor="#666666"
     borderopacity="1"
     objecttolerance="10"
     gridtolerance="10"
     guidetolerance="10"
     inkscape:pageopacity="0"
     inkscape:pageshadow="2"
     inkscape:window-width="1848"
     inkscape:window-height="1061"
     id="namedview17"
     showgrid="false"
     inkscape:zoom="9.8333333"
     inkscape:cx="-3.7118644"
     inkscape:cy="12"
     inkscape:window-x="67"
     inkscape:window-y="27"
     inkscape:window-maximized="0"
     inkscape:current-layer="ic_error_sync" />
  <defs
     id="defs4">
    <style
       type="text/css"
       id="style2">
            .cls-1{fill:#7c7687}.cls-2{fill:none}
        </style>
  </defs>
  <g
     id="Group_8889"
     data-name="Group 8889">
    <g
       id="Group_8887"
       data-name="Group 8887">
      <path
         id="Path_18905"
         d="M19.611 16.782A8.933 8.933 0 0 0 21 12h-2a6.95 6.95 0 0 1-.844 3.328z"
         class="cls-1"
         data-name="Path 18905" />
      <path
         id="Path_18906"
         d="M15.328 18.156A6.993 6.993 0 0 1 6.257 16H9v-2H3v6h2v-2.372a8.942 8.942 0 0 0 11.782 1.983z"
         class="cls-1"
         data-name="Path 18906" />
    </g>
    <g
       id="Group_8888"
       data-name="Group 8888">
      <path
         id="Path_18907"
         d="M8.672 5.844A7 7 0 0 1 17.745 8H15v2h6V4h-2v2.37A8.944 8.944 0 0 0 7.218 4.389z"
         class="cls-1"
         data-name="Path 18907" />
      <path
         id="Path_18908"
         d="M4.389 7.218A8.933 8.933 0 0 0 3 12h2a6.95 6.95 0 0 1 .844-3.328z"
         class="cls-1"
         data-name="Path 18908" />
    </g>
  </g>
  <g
     id="Group_8890"
     data-name="Group 8890">
    <path
       id="Rectangle_4442"
       d="M0 0h2v22.627H0z"
       class="cls-1"
       data-name="Rectangle 4442"
       transform="rotate(-45 7.328 -1.622)" />
  </g>
  <path
     id="Rectangle_4443"
     d="M0 0h24v24H0z"
     class="cls-2"
     data-name="Rectangle 4443" />
  <path
     style="fill:#668000;stroke-width:0.10169491"
     d="m 11.311962,12.644167 -7.9587382,-7.9592227 0.6637247,-0.657825 0.6637246,-0.657825 7.9804559,7.9799707 7.980456,7.979971 -0.631414,0.637077 c -0.347277,0.350392 -0.655727,0.637077 -0.685442,0.637077 -0.02972,0 -3.63546,-3.58165 -8.012767,-7.959223 z"
     id="path826"
     inkscape:connector-curvature="0" />
  <path
     style="fill:#668000;stroke-width:0.10169491"
     d="m 15.050847,8.9621919 v -0.963232 l 1.398306,-0.028294 1.398305,-0.028294 -0.81356,-0.8135593 C 15.754953,5.8498678 14.534006,5.246356 12.779987,5.0261117 11.667021,4.8863618 10.427252,5.0529515 9.3554582,5.4862713 L 8.6949153,5.7533247 7.9938922,5.0527287 7.2928691,4.3521326 8.1464345,3.9392722 c 2.3502905,-1.1368101 5.2042845,-1.1653086 7.5629895,-0.07552 1.009614,0.4664704 1.583001,0.8706179 2.51939,1.7757732 l 0.788135,0.761847 V 5.2142455 4.0271186 h 0.966102 0.966102 V 6.9762712 9.9254237 H 18 15.050847 Z"
     id="path828"
     inkscape:connector-curvature="0" />
  <path
     style="fill:#668000;stroke-width:0.10169491"
     d="M 3.0923382,11.19187 C 3.1814108,10.20892 3.56304,8.8945634 4.0267048,7.9738481 L 4.3910248,7.2504053 5.1034786,7.9628591 5.8159323,8.6753128 5.5966161,9.1052081 C 5.3117768,9.6635393 4.9830508,10.956205 4.9830508,11.517962 v 0.44136 H 4.0029222 3.0227936 Z"
     id="path830"
     inkscape:connector-curvature="0" />
  <path
     style="fill:#668000;stroke-width:0.10169491"
     d="M 10.118644,20.758048 C 8.522581,20.406861 7.0487849,19.600841 5.7716518,18.380676 l -0.788601,-0.753425 v 1.182985 1.182984 H 4.0169492 3.0508475 v -3 -3 H 6 8.9491525 v 0.966102 0.966102 H 7.5726932 6.1962338 l 0.1223378,0.22859 c 0.067286,0.125725 0.3806517,0.486904 0.6963687,0.802621 2.0450072,2.045007 5.0743187,2.624306 7.8049057,1.492541 l 0.541455,-0.224421 0.658332,0.652482 c 0.362084,0.358864 0.658333,0.679322 0.658333,0.712128 0,0.07797 -1.203256,0.675721 -1.755482,0.872078 -1.256847,0.446901 -3.49323,0.584982 -4.80384,0.296605 z"
     id="path832"
     inkscape:connector-curvature="0" />
  <path
     style="fill:#668000;stroke-width:0.10169491"
     d="m 18.894755,15.945873 -0.666189,-0.681466 0.24575,-0.528113 c 0.273561,-0.587878 0.538164,-1.710109 0.540867,-2.293921 l 0.0018,-0.381356 h 0.980129 0.980128 l -0.06803,0.750711 c -0.03742,0.412891 -0.160612,1.084813 -0.273771,1.493159 -0.216492,0.781237 -0.812307,2.16043 -0.977386,2.262455 -0.05339,0.033 -0.396863,-0.246663 -0.763267,-0.621469 z"
     id="path834"
     inkscape:connector-curvature="0" />
  <path
     style="fill:#445500;fill-opacity:1"
     d="M 11.34247,12.593319 3.4345813,4.6849428 4.0730118,4.0521871 4.7114424,3.4194314 l 7.9576216,7.9581066 7.957622,7.958106 -0.589173,0.583025 c -0.324045,0.320664 -0.633719,0.583026 -0.688164,0.583026 -0.05444,0 -3.65754,-3.558769 -8.006879,-7.908376 z"
     id="path8368"
     inkscape:connector-curvature="0" />
  <path
     style="fill:#668000;fill-opacity:1"
     d=""
     id="path8910"
     inkscape:connector-curvature="0" />
  <path
     style="fill:#668000;fill-opacity:1"
     d="M 18.926668,15.92096 18.269623,15.306327 18.46866,14.85637 c 0.271422,-0.613594 0.599137,-1.92899 0.599137,-2.404841 l 0,-0.390512 0.930176,0 0.930177,0 -0.06372,0.737288 c -0.03504,0.405509 -0.158643,1.07743 -0.274666,1.493159 -0.205857,0.737623 -0.845154,2.244129 -0.952312,2.244129 -0.02956,0 -0.349414,-0.276585 -0.710788,-0.614633 z"
     id="path8912"
     inkscape:connector-curvature="0" />
  <path
     style="fill:#668000;fill-opacity:1"
     d="M 10.579401,20.795251 C 8.8787612,20.547535 7.2213602,19.693142 5.7512862,18.306349 5.3710865,17.947687 5.0312565,17.654237 4.9961086,17.654237 c -0.035148,0 -0.063905,0.526272 -0.063905,1.169492 l 0,1.169491 -0.9152542,0 -0.9152542,0 0,-3 0,-3 2.8983051,0 2.898305,0 0,0.963232 0,0.963232 -1.3897514,0.02829 -1.3897515,0.02829 0.4266416,0.492693 c 0.97703,1.12829 2.1248574,1.872024 3.5732003,2.315252 1.385049,0.423859 3.306345,0.293322 4.742302,-0.322201 l 0.480905,-0.20614 0.637737,0.632068 c 0.350756,0.347638 0.613726,0.670921 0.584379,0.718407 -0.0952,0.154034 -1.190351,0.663153 -1.892241,0.879672 -0.67459,0.208099 -2.392241,0.434228 -3.114705,0.410052 -0.203819,-0.0068 -0.643748,-0.05219 -0.97762,-0.100823 z"
     id="path8914"
     inkscape:connector-curvature="0" />
  <path
     style="fill:#445500;fill-opacity:1"
     d="M 10.576271,20.813686 C 8.8181371,20.524845 6.9549451,19.543554 5.6475417,18.217861 5.3418252,17.907868 5.0558082,17.654237 5.0119484,17.654237 c -0.04386,0 -0.079745,0.526272 -0.079745,1.169492 l 0,1.169491 -0.9152542,0 -0.9152542,0 0,-3 0,-3 2.8983051,0 2.898305,0 0,0.966102 0,0.966102 -1.3220339,0 c -0.9721465,0 -1.3220339,0.03282 -1.3220339,0.124008 0,0.234852 1.577448,1.670723 2.2372882,2.036491 1.8883916,1.046788 3.8889516,1.211095 5.9768546,0.490883 l 0.887552,-0.306157 0.635593,0.629534 c 0.349577,0.346244 0.635594,0.658541 0.635594,0.693994 0,0.149343 -1.842654,0.902924 -2.577811,1.054235 -0.951152,0.195767 -2.762698,0.281975 -3.473037,0.165274 z"
     id="path8916"
     inkscape:connector-curvature="0" />
  <path
     style="fill:#445500;fill-opacity:1"
     d="m 18.93882,15.932328 -0.672289,-0.628893 0.2047,-0.477141 c 0.252116,-0.587667 0.594891,-1.988308 0.595853,-2.434769 l 7.13e-4,-0.330508 0.930176,0 0.930177,0 -0.06348,0.737288 c -0.07808,0.906866 -0.281578,1.700975 -0.682939,2.665088 -0.505286,1.21375 -0.463536,1.197999 -1.242907,0.468935 z"
     id="path8918"
     inkscape:connector-curvature="0" />
  <path
     style="fill:#445500;fill-opacity:1"
     d="m 15.101695,8.9593221 0,-0.9661017 L 16.5,7.9895838 17.898305,7.9859472 16.914729,7.032966 C 15.340676,5.5078742 14.063735,4.991077 11.898305,5.0027437 10.794127,5.0086928 10.582891,5.0414653 9.67915,5.3470381 L 8.680334,5.6847576 8.0315039,5.0416948 C 7.6746473,4.6880101 7.4022733,4.3669191 7.4262283,4.3281591 7.5345929,4.1528214 9.541625,3.41773 10.307844,3.2727443 c 2.194455,-0.4152393 4.643428,0.036468 6.439826,1.1878113 0.297256,0.1905165 0.912955,0.697203 1.368218,1.1259699 0.455264,0.4287669 0.855688,0.7795762 0.889831,0.7795762 0.03414,0 0.06208,-0.5262712 0.06208,-1.1694915 l 0,-1.1694915 0.915254,0 0.915254,0 0,2.9491525 0,2.9491526 -2.898305,0 -2.898305,0 0,-0.9661017 z"
     id="path8920"
     inkscape:connector-curvature="0" />
  <path
     style="fill:#445500;fill-opacity:1"
     d="m 3.1355656,11.222034 c 0.035044,-0.405509 0.1583819,-1.080509 0.2740854,-1.5000001 0.2109096,-0.7646683 0.8891208,-2.338983 1.0076286,-2.338983 0.034745,0 0.3521088,0.2915278 0.7052534,0.6478397 L 5.7646143,8.6787302 5.5936628,9.0093139 C 5.3726985,9.4366116 4.9322033,11.172806 4.9322033,11.61643 l 0,0.342892 -0.9301765,0 -0.9301765,0 0.063715,-0.737288 z"
     id="path8922"
     inkscape:connector-curvature="0" />
</svg>
