<?xml version="1.0" encoding="UTF-8" standalone="no"?>
<svg
   xmlns:dc="http://purl.org/dc/elements/1.1/"
   xmlns:cc="http://creativecommons.org/ns#"
   xmlns:rdf="http://www.w3.org/1999/02/22-rdf-syntax-ns#"
   xmlns:svg="http://www.w3.org/2000/svg"
   xmlns="http://www.w3.org/2000/svg"
   xmlns:sodipodi="http://sodipodi.sourceforge.net/DTD/sodipodi-0.dtd"
   xmlns:inkscape="http://www.inkscape.org/namespaces/inkscape"
   id="ic_staking_off"
   width="24"
   height="24"
   viewBox="0 0 24 24"
   shape-rendering="geometricPrecision"
   version="1.1"
   sodipodi:docname="ic-check-staking-off.svg"
   inkscape:version="0.91 r13725">
  <metadata
     id="metadata11">
    <rdf:RDF>
      <cc:Work
         rdf:about="">
        <dc:format>image/svg+xml</dc:format>
        <dc:type
           rdf:resource="http://purl.org/dc/dcmitype/StillImage" />
      </cc:Work>
    </rdf:RDF>
  </metadata>
  <sodipodi:namedview
     pagecolor="#ffffff"
     bordercolor="#666666"
     borderopacity="1"
     objecttolerance="10"
     gridtolerance="10"
     guidetolerance="10"
     inkscape:pageopacity="0"
     inkscape:pageshadow="2"
     inkscape:window-width="1843"
     inkscape:window-height="1051"
     id="namedview9"
     showgrid="false"
     inkscape:zoom="9.8333333"
     inkscape:cx="12"
     inkscape:cy="12"
     inkscape:window-x="67"
     inkscape:window-y="27"
     inkscape:window-maximized="0"
     inkscape:current-layer="ic_staking_off" />
  <defs
     id="defs4">
    <style
       type="text/css"
       id="style2">
            .cls-1{fill:#7c7687}.cls-2{fill:none}
        </style>
  </defs>
  <path
     id="Path_18914"
     d="M18 6V4.854a3 3 0 0 0-5.964-.3L12 4.586l-.033-.033A3 3 0 0 0 6 5v1H2v6h2v10h16V12h2V6zm-4-.586V5a1 1 0 0 1 2 0v1h-2.586zM13 8v8h-2V8zM8 5a1 1 0 0 1 2 0v.414l.586.586H8zM4 8h5v2H4zm14 12H6v-8h3v6h6v-6h3zm2-10h-5V8h5z"
     class="cls-1"
     data-name="Path 18914" />
  <path
     id="Rectangle_4527"
     d="M0 0h24v24H0z"
     class="cls-2"
     data-name="Rectangle 4527" />
  <path
     style="fill:#668000;stroke-width:0.10169491"
     d="M 4.0677966,16.942373 V 11.959322 H 3.0508475 2.0338983 V 9.0101695 6.0610169 H 4.0018442 5.9697901 L 6.0312486,5.1901424 C 6.1341321,3.7322703 6.6928018,2.8336521 7.8159485,2.3194585 8.8852604,1.8299113 10.237522,2.076896 11.075411,2.9147853 11.430637,3.2700107 11.89555,4.1436876 11.897312,4.459322 11.897858,4.557203 11.944072,4.6372881 12,4.6372881 c 0.05593,0 0.102142,-0.080085 0.102688,-0.1779661 0.0018,-0.3156344 0.466675,-1.1893113 0.821901,-1.5445367 0.83789,-0.8378893 2.19015,-1.084874 3.259462,-0.5953268 1.125489,0.5152657 1.701222,1.4430902 1.791289,2.8867583 l 0.05333,0.8548001 h 1.968717 1.968716 v 2.9491526 2.9491525 h -1.016949 -1.01695 v 4.983051 4.983051 H 12 4.0677966 Z M 18,15.976271 v -4.016949 h -1.525424 -1.525423 v 3 3 H 12 9.0508475 v -3 -3 H 7.5254237 6 v 4.016949 4.016949 h 6 6 z M 13.016949,12.010169 V 7.9932203 H 12 10.983051 v 4.0169487 4.01695 H 12 13.016949 Z M 9.0508475,9.0101695 V 7.9932203 H 6.5084746 3.9661017 v 1.0169492 1.0169495 h 2.5423729 2.5423729 z m 10.9830505,0 V 7.9932203 h -2.542373 -2.542372 v 1.0169492 1.0169495 h 2.542372 2.542373 z M 10.576271,5.9770489 c 0,-0.046182 -0.114407,-0.1914477 -0.254237,-0.3228116 -0.156863,-0.1473648 -0.254237,-0.3508379 -0.254237,-0.5312516 0,-0.7668364 -0.7015928,-1.3174124 -1.3894731,-1.0903914 -0.5100631,0.168336 -0.7452707,0.6076366 -0.7457404,1.3928294 l -3.801e-4,0.6355932 h 1.3220339 c 0.7271186,0 1.3220337,-0.037786 1.3220337,-0.083968 z m 5.491526,-0.5312516 c 0,-0.766951 -0.204048,-1.183451 -0.676492,-1.380851 -0.696899,-0.2911828 -1.457764,0.250061 -1.458721,1.0376658 -2.45e-4,0.2017984 -0.09059,0.3975297 -0.254618,0.5516252 -0.13983,0.1313639 -0.254237,0.2766292 -0.254237,0.3228116 0,0.046182 0.594915,0.083968 1.322034,0.083968 h 1.322034 z"
     id="path818"
     inkscape:connector-curvature="0" />
  <path
     style="fill:#445500;fill-opacity:1"
     d="m 4.1491525,16.942373 0,-4.983051 -1.0169492,0 -1.0169491,0 0,-2.9491525 0,-2.9491525 1.9302659,0 c 2.2100353,0 1.9713462,0.1265636 2.07959,-1.1026913 C 6.2291056,3.777317 6.7673545,2.9411441 7.759322,2.4195678 8.1663381,2.2055587 8.4112731,2.1515685 8.9868513,2.1489873 c 1.2879447,-0.00578 2.3154207,0.7329846 2.7598707,1.9843602 0.187669,0.528394 0.303591,0.6236612 0.396652,0.3259746 0.304702,-0.9747074 0.985247,-1.8053724 1.749208,-2.1350629 0.215128,-0.09284 0.678933,-0.1654606 1.087079,-0.170211 0.585208,-0.00681 0.815534,0.042622 1.294535,0.2778396 1.015648,0.4987425 1.516763,1.3586708 1.655562,2.8409936 l 0.0738,0.7881356 1.971103,0 1.971103,0 0,2.9491525 0,2.9491525 -1.016949,0 -1.01695,0 0,4.983051 0,4.983051 -7.881356,0 -7.8813555,0 0,-4.983051 z m 13.9322035,-0.966102 0,-4.016949 -1.576271,0 -1.576271,0 0,3 0,3 -2.898306,0 -2.8983047,0 0,-3 0,-3 -1.5762711,0 -1.5762712,0 0,4.016949 0,4.016949 6.050847,0 6.050848,0 0,-4.016949 z m -4.983051,-3.966101 0,-4.0169496 -1.067797,0 -1.067796,0 0,4.0169496 0,4.016949 1.067796,0 1.067797,0 0,-4.016949 z m -3.9661017,-3.0000005 0,-1.0169491 -2.5932203,0 -2.5932203,0 0,1.0169491 0,1.0169495 2.5932203,0 2.5932203,0 0,-1.0169495 z m 10.9830507,0 0,-1.0169491 -2.59322,0 -2.59322,0 0,1.0169491 0,1.0169495 2.59322,0 2.59322,0 0,-1.0169495 z M 10.555932,5.9242361 c 0,-0.075229 -0.08601,-0.2146217 -0.19114,-0.3097603 C 10.259665,5.5193372 10.145284,5.264091 10.110612,5.0472622 9.9325069,3.9334574 8.6637245,3.5579133 8.1156811,4.4567872 7.9700831,4.6955901 7.912517,4.9696829 7.9122445,5.4254238 l -3.801e-4,0.6355932 1.3220339,0 c 1.0396377,0 1.3220337,-0.029217 1.3220337,-0.1367809 z m 5.590794,-0.244575 C 16.14055,4.70882 15.786476,4.0827648 15.179141,3.9688281 14.584802,3.8573294 13.911864,4.3787719 13.911864,4.9508094 c 0,0.1475462 -0.114406,0.4368536 -0.254237,0.6429054 -0.13983,0.2060518 -0.254237,0.3954887 -0.254237,0.4209709 0,0.025482 0.617796,0.046331 1.372881,0.046331 l 1.372882,0 -0.0024,-0.3813559 4e-6,0 z"
     id="path7902"
     inkscape:connector-curvature="0" />
</svg>
