<?xml version="1.0" encoding="UTF-8" standalone="no"?>
<!-- Generator: Adobe Illustrator 24.0.1, SVG Export Plug-In . SVG Version: 6.00 Build 0)  -->

<svg
   xmlns:dc="http://purl.org/dc/elements/1.1/"
   xmlns:cc="http://creativecommons.org/ns#"
   xmlns:rdf="http://www.w3.org/1999/02/22-rdf-syntax-ns#"
   xmlns:svg="http://www.w3.org/2000/svg"
   xmlns="http://www.w3.org/2000/svg"
   xmlns:sodipodi="http://sodipodi.sourceforge.net/DTD/sodipodi-0.dtd"
   xmlns:inkscape="http://www.inkscape.org/namespaces/inkscape"
   version="1.1"
   id="ic-transaction-staked"
   x="0px"
   y="0px"
   viewBox="0 0 24 24"
   style="enable-background:new 0 0 24 24;"
   xml:space="preserve"
   inkscape:version="0.91 r13725"
   sodipodi:docname="ic-check-tor-off.svg"><metadata
     id="metadata5909"><rdf:RDF><cc:Work
         rdf:about=""><dc:format>image/svg+xml</dc:format><dc:type
           rdf:resource="http://purl.org/dc/dcmitype/StillImage" /></cc:Work></rdf:RDF></metadata><defs
     id="defs5907" /><sodipodi:namedview
     pagecolor="#ffffff"
     bordercolor="#666666"
     borderopacity="1"
     objecttolerance="10"
     gridtolerance="10"
     guidetolerance="10"
     inkscape:pageopacity="0"
     inkscape:pageshadow="2"
     inkscape:window-width="1855"
     inkscape:window-height="1176"
     id="namedview5905"
     showgrid="false"
     inkscape:zoom="40.333333"
     inkscape:cx="13.229645"
     inkscape:cy="12"
     inkscape:window-x="65"
     inkscape:window-y="24"
     inkscape:window-maximized="1"
     inkscape:current-layer="ic-transaction-staked" /><style
     type="text/css"
     id="style5894">
	.st0{fill:none;}
	.st1{fill:#7c7687;}
</style><path
     id="Rectangle_4527"
     class="st0"
     d="M0,0h24v24H0V0z" /><g
     id="g5897"><g
       id="g5899"><path
         class="st1"
         d="M16.5,12c-0.7-0.6-1.6-1.1-2.5-1.6c-0.4-0.2-1.6-1.2-1.2-2.6l-0.9-0.1c1.2-1.9,2.9-3.9,4.9-5.7    c-1.6,0.5-2.9,1.3-4,2.8c0.6-1.3,1.6-2.5,2.7-3.8C14,2,12.7,3.3,11.9,4.9l0.6-2.3c-0.9,1.5-1.5,3.1-1.7,4.7L9.7,6.5L9.5,6.7    c1,1.9,0.5,2.9,0,3.2c-1,0.7-2.6,1.6-3.3,2.4c-1.5,1.5-1.9,2.9-1.7,4.8c0.1,2.4,1.9,4.4,4.2,5.2c1,0.3,2,0.4,3,0.4    c1.7,0,3.4-0.5,4.7-1.5c1.3-1.1,2.1-2.8,2.1-4.6C18.5,14.9,17.8,13.2,16.5,12z M9.9,7L9.9,7L9.9,7C9.9,7,9.9,7,9.9,7z M13.6,20.7    c-0.3,0.7-0.9,1.4-1.3,1.7c-0.2,0-0.5,0-0.7,0c-0.6,0-1.3-0.1-1.9-0.2c-0.7-0.2-1.2-0.5-1.6-1c0,0-0.1-0.1-0.1-0.1    c-0.7-0.8-1.5-2.1-1.9-3.3C6,17.4,5.9,17,6.1,16.5c0.6-2,1.8-2.7,3-3.6c0.3-0.2,0.6-0.3,0.9-0.5c0.5-0.4,0.8-1.5,1.1-2.4    c-0.1,0.7-0.3,2.1-1,2.6c-0.3,0.2-0.6,0.4-0.9,0.6c-1.2,0.8-2.4,1.5-2.9,3.4c-0.1,0.4,0,0.8,0.1,1.2c0.3,1.2,1.1,2.4,1.8,3.1    c0,0,0.1,0.1,0.1,0.1c0.4,0.5,0.6,0.7,1.6,1c-0.2-0.1-0.4-0.2-0.6-0.4c-1.1-0.8-1.7-1.8-1.8-3.2c-0.1-1.1,0.6-2.3,2-3    c0.9-0.5,1.2-1.2,1.5-2.1c-0.2,1-0.4,1.7-1.4,2.2c-1.1,0.7-2,2-1.9,2.9c0.1,1.1,0.9,2.3,1.7,3.1c0.4,0.4,1.1,0.6,1.8,0.7    c0,0,0,0,0,0c-0.2-0.1-0.5-0.3-0.7-0.6c-0.2-0.2-0.3-0.6-0.4-0.9C10,20.3,9.8,20,9.8,19.7c0-0.7,0.1-1.5,0.6-2.1    c0.4-0.5,0.6-0.6,0.8-1.1c0-1.7,0-3.2,0-4.5c0-1.4,0-2.5,0-3.2c0-0.7,0-1.1,0-1.1l0.1,0c0,0.2,0,0.7,0,1.5c0,0.8,0,1.9,0,3.3    c0,1.4,0,3,0,4.7c0,1.2,0,2.4,0,3.7c0,0.4,0,0.8,0,1.1c0,0,0,0,0,0c0.3-0.5,0.4-1.5,0.5-2.1c0-0.5,0.1-1,0-1.6    c-0.1-0.7-0.3-1.5-0.3-2c0.1,0.5,0.4,1.3,0.5,2c0.1,0.6,0.1,1.1,0.1,1.6c0,0.5-0.1,0.9-0.1,1.3c-0.1,0.3-0.3,0.7-0.6,1v0l0,0h0    c0,0,0,0,0,0c0,0,0,0,0,0c0,0,0,0,0,0c0.6-0.4,1-1.1,1.1-1.9c0.2-1,0.2-1.9,0.2-2.4c0-0.4-0.2-1.1-0.4-1.7c-0.1-0.5-0.6-1-0.7-1.3    c-0.2-0.6-0.1-1-0.1-1.9c0.1,0.8,0.1,1.4,0.3,1.7c0.2,0.3,0.4,0.7,0.6,1.2c0.3,0.8,0.5,1.7,0.5,2.1c0,0.7-0.1,1.8-0.3,2.6    c-0.1,0.3-0.2,0.5-0.3,0.8c0.2-0.4,0.4-0.9,0.5-1.3c0.3-1.5,0.6-3,0.4-3.9c0-0.2-0.1-0.9-0.4-1.7c-0.4-1.1-1-2-1.1-2.2    c-0.2-0.6-0.3-2.2-0.3-3c0,1,0.2,2.5,0.4,2.8c0.1,0.2,0.7,1.2,1.2,2.3c0.3,0.7,0.4,1.4,0.4,1.6c0.2,2,0,2.8-0.5,4.6    c-0.1,0.4-0.4,0.8-0.6,1.2c0.5-0.5,0.9-1.2,1-1.7c0.5-2.2,0.7-5.1,0-7.3c-0.4-1.1-1.3-2.1-1.5-2.8c-0.2-0.6-0.1-0.9-0.1-1.8    c0,1,0.3,1.7,0.4,2.1c0.1,0.2,0.9,1.2,1.3,2.3c0.3,0.7,0.6,2.5,0.6,2.6C14.3,17.2,14.2,19.1,13.6,20.7z"
         id="path5901" /><path
         class="st1"
         d="M11.2,16.5c-0.1,0.6-0.2,0.7-0.6,1.2c-0.5,0.8-0.6,1.5-0.5,2c0,0.3,0.2,0.6,0.3,0.8c0.1,0.3,0.3,0.6,0.5,0.9    c0.1,0.2,0.2,0.3,0.4,0.4c0-1.7,0-3.5,0-5.1C11.2,16.7,11.2,16.6,11.2,16.5z"
         id="path5903" /></g></g><path
     style="fill:#668000"
     d="M 11.124793,22.67495 C 10.095852,22.633157 9.0710102,22.443512 8.385124,22.167978 7.576528,21.84315 6.7985367,21.331963 6.1804175,20.719355 5.362379,19.908611 4.815967,18.917943 4.6066861,17.866116 4.4890821,17.275048 4.4336947,16.168706 4.4939941,15.615139 4.5807792,14.818425 4.8520181,14.070036 5.2927145,13.41135 5.5246283,13.06472 5.7046002,12.844072 6.10535,12.415048 6.7061593,11.771849 6.8866367,11.636899 9.067586,10.200076 9.6637294,9.807333 9.7971097,9.686309 9.9218393,9.4249619 10.038109,9.1813398 10.078938,8.9699864 10.07769,8.6181818 10.075922,8.1197655 9.9423226,7.6078693 9.6552337,6.9995053 L 9.5173294,6.707275 l 0.09352,-0.095773 0.09352,-0.095773 0.5443045,0.3968866 c 0.299367,0.2182875 0.547649,0.3928889 0.551738,0.3880034 0.0041,-0.00489 0.03716,-0.1891582 0.07349,-0.4094945 0.202137,-1.2258457 0.652713,-2.496868 1.323401,-3.7331586 0.131152,-0.2417554 0.242524,-0.4354893 0.247494,-0.4305196 0.005,0.00497 -0.114276,0.4820194 -0.26499,1.0601105 -0.150714,0.5780913 -0.273857,1.0674863 -0.27365,1.0875444 1.98e-4,0.020058 0.06256,-0.080679 0.13857,-0.223861 0.516117,-0.9722658 1.377956,-1.9979297 2.379122,-2.8313624 0.35782,-0.2978712 0.928036,-0.7225341 0.946026,-0.7045438 0.0061,0.00608 -0.105262,0.1486732 -0.24743,0.3168702 -0.742913,0.8789285 -1.373799,1.7124275 -1.758254,2.3229268 -0.223778,0.35535 -0.580184,1.0140042 -0.559749,1.0344397 0.0065,0.00646 0.05992,-0.052704 0.11879,-0.1314749 0.31042,-0.4153175 0.859362,-0.9819761 1.263541,-1.3043191 0.437648,-0.349036 1.025616,-0.7059993 1.541481,-0.9358534 0.33202,-0.1479386 0.934539,-0.3752273 0.966472,-0.3645831 0.01237,0.00412 -0.153572,0.1710567 -0.368763,0.370962 -0.959169,0.8910358 -2.03451,2.0489569 -2.873999,3.0947066 -0.622317,0.7752171 -1.579054,2.1363647 -1.531762,2.1792337 0.01252,0.011352 0.21434,0.040501 0.448481,0.064777 0.41862,0.043402 0.425372,0.045032 0.405296,0.097835 -0.01123,0.029534 -0.03251,0.1534406 -0.04728,0.2753479 -0.07845,0.6472009 0.174967,1.2963471 0.719186,1.8422162 0.238719,0.239443 0.37828,0.335004 1.001223,0.685563 1.192545,0.671101 1.843902,1.122455 2.294466,1.589937 1.517717,1.574706 2.100357,3.865413 1.521,5.979961 -0.35833,1.30784 -1.189131,2.512724 -2.196421,3.185397 -0.19502,0.130235 -0.471731,0.298307 -0.614912,0.373493 -0.940812,0.494028 -2.089032,0.81124 -3.148761,0.869888 -0.524697,0.02904 -0.716186,0.03104 -1.177686,0.01229 z M 12.5298,22.211157 c 0.494489,-0.470412 0.917962,-1.085372 1.123578,-1.631644 0.171126,-0.454641 0.344149,-1.197665 0.435553,-1.870422 0.06711,-0.493942 0.09365,-1.735803 0.04991,-2.335648 -0.09219,-1.264476 -0.393746,-2.860159 -0.698372,-3.695452 -0.21427,-0.587534 -0.486063,-1.096932 -1.015243,-1.902784 L 12.107749,10.291736 11.992977,9.9001641 C 11.843307,9.3895344 11.768279,9.0211862 11.728248,8.6004868 l -0.03253,-0.3418091 -0.01974,0.5082644 c -0.02421,0.6235156 8.45e-4,0.881439 0.120401,1.2392679 0.105233,0.314959 0.214689,0.521248 0.623049,1.174249 0.715562,1.14424 0.895009,1.54804 1.082221,2.435266 0.17121,0.811389 0.226618,1.440434 0.224793,2.552044 -0.0019,1.178568 -0.07137,1.969234 -0.272761,3.105772 -0.174899,0.987064 -0.304434,1.368094 -0.631677,1.858093 -0.159294,0.238518 -0.396036,0.535663 -0.413145,0.518554 -0.007,-0.007 0.06051,-0.138845 0.150003,-0.293017 0.234957,-0.404782 0.293942,-0.54888 0.434432,-1.061303 0.392125,-1.430236 0.485558,-2.007511 0.48355,-2.987604 -0.0022,-1.083531 -0.09823,-1.837156 -0.31991,-2.511098 -0.131766,-0.400589 -0.572636,-1.307039 -1.08678,-2.234472 C 11.7617,12.006282 11.72973,11.936493 11.67263,11.694926 11.561138,11.22324 11.483981,10.657582 11.43609,9.9608048 c -0.01251,-0.1820117 -0.02996,-0.3381422 -0.03877,-0.3469567 -0.0088,-0.00881 -0.0099,0.050848 -0.0025,0.1325836 0.0075,0.081735 0.01981,0.2936513 0.02745,0.4709233 0.02903,0.674002 0.119962,1.474435 0.212314,1.868958 0.04021,0.171771 0.09106,0.281392 0.293279,0.632232 0.623202,1.081228 0.986616,1.970306 1.178786,2.883853 0.02017,0.09589 0.06067,0.36274 0.09001,0.592999 0.0871,0.683731 0.05583,1.32211 -0.115251,2.352537 -0.164163,0.988769 -0.405244,2.080327 -0.449652,2.035919 -0.0054,-0.0054 0.01823,-0.153775 0.05253,-0.329696 0.20117,-1.031727 0.270297,-2.200215 0.164399,-2.778923 -0.174552,-0.95388 -0.520947,-1.911816 -0.957215,-2.647125 -0.208272,-0.351033 -0.244756,-0.496061 -0.321007,-1.276043 -0.022,-0.225 -0.04847,-0.442562 -0.05883,-0.483471 -0.03137,-0.12385 -0.05705,1.11328 -0.02783,1.340719 0.05403,0.420526 0.09789,0.527747 0.410002,1.002166 0.27723,0.421405 0.306077,0.484883 0.478898,1.053809 0.298578,0.982922 0.314775,1.07756 0.30764,1.797521 -0.0067,0.67677 -0.05056,1.192637 -0.15597,1.834711 -0.119371,0.727113 -0.2256,1.040969 -0.483541,1.42863 -0.137986,0.207381 -0.421426,0.524685 -0.446389,0.499722 -0.0068,-0.0068 0.02864,-0.07245 0.07869,-0.145954 0.05006,-0.0735 0.143751,-0.245208 0.208213,-0.381572 0.117104,-0.247723 0.117244,-0.248334 0.163783,-0.719008 0.03478,-0.351761 0.04612,-0.659464 0.04478,-1.214876 -0.0019,-0.78981 -0.02439,-1.037402 -0.146893,-1.617669 -0.06051,-0.286627 -0.39402,-1.516851 -0.435239,-1.605472 -0.06452,-0.138713 0.01456,0.427276 0.226886,1.623967 0.03992,0.225 0.07956,0.542975 0.08809,0.706612 0.04127,0.791678 -0.138245,2.226906 -0.365918,2.92562 -0.156338,0.47979 -0.144278,1.04236 -0.145242,-6.774794 l -8.79e-4,-7.1219006 -0.06198,0 -0.06198,0 0,4.3987706 c 0,4.319396 -8.8e-4,4.400825 -0.04878,4.512568 -0.0709,0.165391 -0.212772,0.363671 -0.471475,0.658909 -0.311952,0.356008 -0.4362,0.525519 -0.54519,0.743802 -0.208104,0.416784 -0.2961356,0.813591 -0.3135245,1.413223 l -0.012582,0.433884 0.08999,0.247934 c 0.049495,0.136364 0.1542363,0.443182 0.2327583,0.681819 0.07852,0.238636 0.173955,0.494736 0.212073,0.569111 0.137545,0.268374 0.441498,0.599202 0.678097,0.738053 0.05857,0.03437 0.102948,0.06604 0.09862,0.07037 -0.01457,0.01457 -0.475842,-0.0841 -0.698238,-0.14936 -0.6028095,-0.17689 -0.9068575,-0.38629 -1.4053125,-0.967846 -0.6196954,-0.723009 -1.1150492,-1.662465 -1.2490517,-2.368869 -0.1255937,-0.662075 0.055026,-1.267843 0.5966561,-2.001083 0.3240719,-0.438718 0.974009,-1.017806 1.42599,-1.270544 0.6184011,-0.345797 0.9692351,-0.881957 1.1603491,-1.773296 0.02917,-0.136051 0.05947,-0.269679 0.06734,-0.296952 0.0092,-0.03203 0.0059,-0.04081 -0.0095,-0.02479 -0.01307,0.01364 -0.05973,0.130785 -0.103689,0.260331 -0.09225,0.27183 -0.30243,0.722654 -0.429597,0.921446 -0.236365,0.369499 -0.5908012,0.684525 -1.0550259,0.937717 -1.0357066,0.564884 -1.6812999,1.35112 -1.8782616,2.287444 -0.075916,0.360893 -0.033375,1.01567 0.099498,1.53144 0.2331486,0.905005 0.6890271,1.571649 1.5521093,2.269691 0.1695957,0.137166 0.352984,0.28058 0.4075294,0.3187 0.096003,0.06709 0.096795,0.06877 0.024793,0.05267 C 9.4773032,21.865743 9.0428844,21.670872 8.9017106,21.577166 8.8254015,21.526515 8.7142126,21.437853 8.6546239,21.38014 8.5075423,21.237687 7.9506714,20.621081 7.7769828,20.408354 7.1790952,19.676086 6.7036583,18.795136 6.4606422,17.96927 6.2388477,17.215523 6.2245393,16.828655 6.3990569,16.304132 6.642689,15.571882 6.9686058,15.041334 7.50405,14.505356 7.9229767,14.086012 8.1494023,13.915043 9.3200541,13.134134 10.103544,12.61149 10.233781,12.515572 10.343409,12.380448 c 0.316153,-0.389681 0.56807,-1.098902 0.706688,-1.989539 0.02122,-0.136364 0.04523,-0.281405 0.05334,-0.322314 0.0334,-0.1684219 -0.02826,-0.01111 -0.229293,0.584914 -0.317453,0.941206 -0.533823,1.392949 -0.78918,1.647672 -0.086917,0.0867 -0.2130529,0.169543 -0.4105838,0.269655 -0.419371,0.212544 -0.5336738,0.285399 -1.0661157,0.679536 -1.0704397,0.792385 -1.5501422,1.2765 -1.9801406,1.998357 -0.1931133,0.324187 -0.3419233,0.660452 -0.5029148,1.136434 -0.1612156,0.476645 -0.1826769,0.725978 -0.098054,1.139171 0.1609204,0.785736 0.8456921,2.124277 1.601778,3.131038 0.2831169,0.376982 0.7113548,0.84068 0.9315104,1.008642 0.328013,0.250251 0.8070761,0.47191 1.1883168,0.549827 0.5949787,0.1216 1.2366107,0.181987 1.9775447,0.186114 l 0.601511,0.0034 0.201984,-0.192149 z"
     id="path5911"
     inkscape:connector-curvature="0" /><path
     style="fill:#445500;fill-opacity:1"
     d="m 11.21157,21.738413 c -0.03409,-0.02129 -0.08747,-0.06122 -0.11862,-0.08873 -0.112427,-0.09928 -0.501958,-0.756288 -0.721811,-1.217456 -0.215473,-0.451979 -0.226203,-0.482632 -0.264694,-0.756198 -0.04789,-0.340359 -0.03379,-0.596346 0.05132,-0.931849 0.117713,-0.464038 0.293007,-0.820694 0.605386,-1.231732 0.224851,-0.295865 0.330816,-0.492514 0.387944,-0.71994 0.03985,-0.158643 0.04127,-0.160484 0.0878,-0.113953 0.04599,0.046 0.04712,0.116669 0.04098,2.57293 l -0.0063,2.525636 -0.06198,-0.03871 z"
     id="path5913"
     inkscape:connector-curvature="0" /><path
     style="fill:#445500;fill-opacity:1"
     d="M 10.797414,22.65038 C 9.8312226,22.571668 8.9576513,22.390295 8.3495684,22.142153 7.1446437,21.650456 6.0587055,20.766497 5.3808704,19.72562 5.1955646,19.441066 4.9160739,18.876981 4.811391,18.576262 4.5834674,17.921513 4.4873534,17.218295 4.4876425,16.207557 4.4878998,15.308301 4.6285138,14.685763 5.0006424,13.936364 5.2777882,13.378242 5.6863145,12.845355 6.3326874,12.198826 6.7705926,11.760815 7.083051,11.527796 8.4668352,10.607261 9.8123982,9.7121517 9.9007286,9.6291005 10.03414,9.1336282 10.092788,8.9158183 10.091981,8.3574583 10.032608,8.0727273 9.9690076,7.7677264 9.8192499,7.3346809 9.6625693,7.0027088 L 9.5261575,6.7136824 9.6198247,6.6222188 9.7134922,6.5307553 9.995122,6.7364727 c 0.534678,0.3905574 0.794796,0.5710223 0.806373,0.559446 0.0064,-0.00639 0.04475,-0.1996131 0.08524,-0.429387 0.137343,-0.779313 0.370927,-1.5933293 0.669973,-2.3347855 0.234099,-0.5804276 0.818651,-1.7451414 0.834515,-1.6627645 0.0039,0.020468 -0.105526,0.47562 -0.243262,1.0114491 -0.137736,0.5358293 -0.244943,0.9797214 -0.238237,0.9864273 0.0067,0.00671 0.06042,-0.073612 0.119361,-0.1784846 0.712891,-1.2683864 1.634584,-2.3006175 2.916161,-3.2658973 0.18131,-0.1365615 0.335983,-0.241964 0.343719,-0.2342279 0.0077,0.00774 -0.141514,0.2015409 -0.331668,0.4306773 -0.720972,0.8687745 -1.28568,1.6290544 -1.642918,2.2118986 -0.230358,0.3758375 -0.53298,0.9407673 -0.514076,0.959671 0.007,0.007 0.105006,-0.1023592 0.217795,-0.2430173 0.294803,-0.3676478 1.001155,-1.0626056 1.323316,-1.3019701 0.263526,-0.1957988 0.672999,-0.4536072 1.009418,-0.6355405 0.297919,-0.1611127 1.272655,-0.558272 1.300879,-0.5300476 0.0046,0.00457 -0.277125,0.2857843 -0.625999,0.6249101 -1.448932,1.4084447 -2.637475,2.7910247 -3.629127,4.2216042 -0.361681,0.5217699 -0.501715,0.756752 -0.463666,0.7780458 0.01847,0.010338 0.202884,0.038195 0.409801,0.061904 0.206916,0.023709 0.387465,0.050061 0.401218,0.058561 0.01673,0.010338 0.01604,0.060072 -0.0021,0.1502135 -0.04435,0.2208 -0.0328,0.6533115 0.02319,0.8684792 0.103542,0.3978781 0.307699,0.745587 0.640428,1.090741 0.270301,0.2803952 0.389344,0.3645892 1.048944,0.7418802 1.511207,0.86441 2.088687,1.301342 2.648241,2.003711 0.696246,0.873949 1.132258,1.881783 1.310466,3.029121 0.06292,0.405094 0.06311,1.361782 3.57e-4,1.76033 -0.198745,1.262164 -0.731136,2.380717 -1.545035,3.246122 -0.934178,0.993296 -2.434216,1.684014 -4.124773,1.899324 -0.368208,0.04689 -1.543362,0.06834 -1.946281,0.03551 z m 1.782688,-0.482092 c 0.522077,-0.518694 0.916488,-1.116762 1.114524,-1.690021 0.206947,-0.59905 0.390683,-1.519652 0.438579,-2.197487 0.04529,-0.640961 0.01879,-2.028919 -0.04911,-2.571689 -0.111974,-0.895156 -0.310187,-1.938326 -0.483901,-2.546709 -0.230948,-0.80883 -0.486678,-1.331916 -1.167056,-2.387175 L 12.105439,10.266942 11.990982,9.8578512 c -0.14229,-0.5085733 -0.205028,-0.8130039 -0.241421,-1.1714806 -0.04578,-0.4509499 -0.063,-0.4339907 -0.08179,0.080571 -0.03606,0.9875842 0.05516,1.2945919 0.69217,2.3294979 0.835736,1.357768 0.988165,1.717654 1.187086,2.802734 0.135743,0.740452 0.150808,0.963054 0.151016,2.231405 1.98e-4,1.236839 -0.01319,1.485273 -0.125062,2.320085 -0.12093,0.90241 -0.300526,1.739819 -0.453032,2.112369 -0.07944,0.194062 -0.230827,0.463227 -0.37266,0.662587 -0.136867,0.192382 -0.257375,0.337133 -0.270086,0.324422 -0.0064,-0.0064 0.06174,-0.143308 0.151323,-0.304349 0.198354,-0.356591 0.307961,-0.676281 0.521548,-1.521194 0.278714,-1.102547 0.355735,-1.737698 0.329081,-2.713755 -0.03253,-1.191252 -0.165775,-1.911496 -0.490787,-2.652893 -0.159839,-0.364616 -0.570471,-1.17467 -0.923767,-1.822314 -0.145055,-0.265909 -0.286912,-0.544835 -0.315236,-0.619835 -0.109757,-0.290627 -0.238657,-1.087414 -0.294803,-1.822314 -0.02733,-0.357663 -0.04625,-0.4951989 -0.0655,-0.4759543 -0.01396,0.013958 0.05805,1.1896623 0.09217,1.5048803 0.04459,0.411975 0.123495,0.892356 0.172448,1.049932 0.02606,0.0839 0.115995,0.275275 0.199845,0.425275 0.774001,1.384617 1.107768,2.222563 1.273952,3.198347 0.156912,0.921337 0.13888,1.605128 -0.07581,2.874724 -0.118498,0.70076 -0.350952,1.788925 -0.37666,1.763217 -0.006,-0.006 0.01793,-0.181754 0.05321,-0.390548 0.09153,-0.541817 0.134796,-0.931791 0.163164,-1.470534 0.03895,-0.739711 -0.01804,-1.197879 -0.245967,-1.977328 -0.178963,-0.612014 -0.376392,-1.089424 -0.688345,-1.664508 -0.117519,-0.216646 -0.234181,-0.46768 -0.259249,-0.557851 -0.03557,-0.127944 -0.169014,-1.151662 -0.169014,-1.296579 0,-0.02153 -0.0076,-0.02254 -0.02666,-0.0035 -0.01752,0.01752 -0.02795,0.259238 -0.03044,0.705372 -0.0052,0.930193 0.01812,1.023173 0.406356,1.620865 0.242532,0.373379 0.344143,0.598075 0.493328,1.090909 0.29383,0.970675 0.309547,1.075902 0.290442,1.944571 -0.01519,0.690659 -0.05061,1.08218 -0.153777,1.700057 -0.110696,0.662929 -0.242033,1.045426 -0.478563,1.393732 -0.1102,0.162276 -0.351994,0.436777 -0.369402,0.419369 -0.006,-0.006 0.03891,-0.09877 0.09983,-0.206126 0.234224,-0.412787 0.26152,-0.522406 0.316107,-1.269467 0.03995,-0.54672 0.01832,-1.677364 -0.03942,-2.060649 -0.06981,-0.463426 -0.49021,-2.082644 -0.540718,-2.082644 -0.03372,0 -0.0017,0.249261 0.145144,1.130446 0.18159,1.089541 0.200384,1.306385 0.163513,1.886551 -0.05841,0.919019 -0.182932,1.69007 -0.369642,2.288788 l -0.06572,0.210744 -0.01667,-0.148761 c -0.0092,-0.08182 -0.01788,-3.264359 -0.01936,-7.072314 l -0.0027,-6.9235536 -0.07319,0 -0.07319,0 -0.0074,4.4194216 -0.0074,4.419421 -0.06743,0.127863 c -0.0785,0.148854 -0.264131,0.399576 -0.465205,0.628336 -0.627686,0.714115 -0.8207219,1.228654 -0.8278406,2.206611 l -0.00316,0.433885 0.2310858,0.655099 c 0.127098,0.360304 0.257464,0.707151 0.289702,0.770771 0.121984,0.240722 0.378185,0.533057 0.603145,0.688211 0.07271,0.05015 0.120781,0.09498 0.106826,0.09963 -0.01395,0.0047 -0.145964,-0.02041 -0.293355,-0.0557 C 10.000679,21.916645 9.6966188,21.758696 9.2797465,21.334227 8.656912,20.700041 8.1300555,19.861515 7.8759656,19.100018 7.6803547,18.51378 7.6874174,17.984442 7.8977213,17.469421 c 0.2942041,-0.720485 1.0440281,-1.535456 1.8933124,-2.057808 0.6498353,-0.399681 0.9583213,-0.883802 1.1674743,-1.832166 0.02826,-0.128122 0.04735,-0.245016 0.04244,-0.259766 -0.0049,-0.01475 -0.04032,0.05661 -0.07867,0.158569 -0.424308,1.12801 -0.712053,1.481686 -1.653751,2.032677 -0.37368,0.218641 -0.6393106,0.425727 -0.9264652,0.722273 -0.266763,0.275487 -0.4248642,0.495045 -0.5801705,0.805692 -0.2181206,0.43629 -0.2887153,0.781543 -0.2669809,1.305704 0.022255,0.536719 0.1134007,0.972106 0.3003295,1.434626 0.2868223,0.709688 0.7621349,1.275839 1.6472777,1.962095 0.1002578,0.07773 0.1719126,0.141328 0.1592331,0.141328 -0.1003934,0 -0.6511285,-0.274776 -0.8263468,-0.412286 -0.2559558,-0.200872 -1.0122018,-1.06224 -1.3187075,-1.502014 -0.5138133,-0.73722 -0.871236,-1.510319 -1.0750747,-2.32537 -0.06333,-0.253224 -0.071274,-0.32812 -0.071007,-0.669421 l 3.003e-4,-0.384298 0.1032501,-0.301561 c 0.270231,-0.789261 0.6378654,-1.354373 1.2554885,-1.929884 0.3309541,-0.308389 0.5480432,-0.468478 1.587485,-1.170672 0.5800039,-0.391821 0.9205448,-0.638577 1.0196218,-0.738818 0.339084,-0.34307 0.594114,-1.000801 0.767757,-1.980076 0.03598,-0.20292 0.06205,-0.39259 0.05792,-0.421488 -0.0041,-0.0289 -0.07301,0.137127 -0.153085,0.368945 -0.261191,0.756168 -0.390293,1.086014 -0.543432,1.38843 -0.202848,0.400579 -0.360195,0.55911 -0.7737905,0.779613 -0.4877246,0.260024 -0.9634882,0.589958 -1.6549867,1.147704 -0.8943094,0.721328 -1.42791,1.454695 -1.7903841,2.460657 -0.271452,0.753352 -0.2780993,1.061888 -0.038203,1.773183 0.4269679,1.265962 1.5789356,3.043735 2.3856277,3.681617 0.2288132,0.180931 0.5867415,0.373289 0.8964064,0.481746 0.313836,0.109917 0.9486938,0.212196 1.6023658,0.258147 0.06136,0.0043 0.381352,0.0098 0.711085,0.01217 l 0.599515,0.0043 0.236551,-0.235018 z"
     id="path7406"
     inkscape:connector-curvature="0" /></svg>